<?xml version="1.0" encoding="UTF-8" standalone="no"?>
<!-- Created with Inkscape (http://www.inkscape.org/) -->

<svg
   version="1.1"
   id="svg3456"
   width="341.33334"
   height="341.33334"
   viewBox="0 0 341.33334 341.33334"
   xmlns="http://www.w3.org/2000/svg"
   xmlns:svg="http://www.w3.org/2000/svg">
  <defs
     id="defs3460" />
  <g
     id="g3466">
    <path
       style="fill:#ff0000;fill-opacity:0.247059;stroke-width:1.33333"
       d="m 192,206 -0.33333,-0.33333 0.375,-0.375 0.375,-0.375 -0.0833,-0.0833 -0.0833,-0.0833 0.16667,0.16667 q 0.16667,0.16667 0.41667,0.25 l 0.25,0.0833 -0.375,-0.12493 -0.375,-0.12493 0.5,0.16666 q 0.5,0.16654 0.5,0.8332 v 0.66667 l -0.5,-0.16667 q -0.5,-0.16666 -0.83334,-0.5 m -0.41666,-0.41666 0.0833,0.0833 0.25,0.25 0.25,0.25 L 192,206 q -0.16666,-0.16666 -0.33333,-0.33333 L 191.5,205.5 l 0.0833,0.0833"
       id="path3702" />
    <path
       style="fill:#ff0000;fill-opacity:0.109804;stroke-width:1.33333"
       d="M 190.83334,204.5 190.66667,204 H 191.33334 192 l 0.16667,0.5 0.16667,0.5 -0.12494,-0.375 -0.12493,-0.375 0.0833,0.25 q 0.0833,0.25 0.25,0.41667 l 0.16667,0.16667 -0.0833,-0.0833 -0.0833,-0.0833 -0.375,0.375 -0.37513,0.375 -0.33333,-0.33333 Q 191,205 190.83334,204.5 m 0.58333,0.91667 0.25,0.25 0.0833,0.0833 0.0833,0.0833 -0.16667,-0.16667 Q 191.5,205.5 191.33334,205.33334 l -0.16667,-0.16667 0.25,0.25"
       id="path3700" />
    <path
       style="fill:#ff0000;fill-opacity:0.113725;stroke-width:1.33333"
       d="m 190.83334,203.5 q 0.16666,-0.5 0.5,-0.83333 l 0.33333,-0.33333 -0.25,0.25 -0.25,0.25 0.16667,-0.16667 q 0.16666,-0.16667 0.25,-0.33333 l 0.0833,-0.16667 -0.0416,0.0833 -0.0416,0.0833 0.375,0.33333 Q 192.33347,203 192.1668,203.5 L 192,204 h -0.66666 -0.66667 l 0.16667,-0.5"
       id="path3698" />
    <path
       style="fill:#ff0000;fill-opacity:0.694118;stroke-width:1.33333"
       d="m 202.5,200.5 0.16667,-0.5 0.5,-0.16666 0.5,-0.16667 -0.375,0.12493 -0.375,0.12494 0.25,-0.0833 q 0.25,-0.0833 0.41667,-0.25 l 0.16666,-0.16666 -0.0833,0.0833 -0.0833,0.0833 0.375,0.375 0.375,0.37514 L 204,200.66667 Q 203.66667,201 203.33334,201.33334 L 203,201.66667 202.66667,201.33334 Q 202.33334,201 202.5,200.5 m 0.41667,1.25 0.0833,-0.0833 0.25,-0.25 0.25,-0.25 -0.16666,0.16667 Q 203.16667,201.5 203,201.66667 l -0.16666,0.16667 0.0833,-0.0833 m 1.16667,-1.16666 0.25,-0.25 0.0833,-0.0833 0.0833,-0.0833 -0.16666,0.16667 Q 204.16667,200.5 204,200.66667 l -0.16666,0.16667 0.25,-0.25"
       id="path3696" />
    <path
       style="fill:#ff0000;fill-opacity:0.215686;stroke-width:1.33333"
       d="M 190.83334,200.5 190.66667,200 H 191.33334 192 l 0.16667,0.5 q 0.16667,0.5 -0.20833,0.83334 l -0.375,0.33333 0.0416,0.0833 0.0416,0.0833 -0.0833,-0.16667 Q 191.5,201.5 191.33334,201.33334 l -0.16667,-0.16667 0.25,0.25 0.25,0.25 -0.33333,-0.33333 Q 191,201 190.83334,200.5"
       id="path3694" />
    <path
       style="fill:#ff0000;fill-opacity:0.00392157;stroke-width:1.33333"
       d="m 203.83334,199.16667 0.16666,-0.5 h 0.66667 0.66667 l -0.16667,0.5 q -0.16667,0.5 -0.5,0.83333 l -0.33333,0.33334 -0.375,-0.375 -0.375,-0.375 -0.0833,0.0833 -0.0833,0.0833 0.16667,-0.16666 q 0.16666,-0.16667 0.25,-0.41667 l 0.0833,-0.25 -0.12493,0.375 -0.12494,0.375 0.16667,-0.5 m 0.41667,1.25 0.0833,-0.0833 0.25,-0.25 0.25,-0.25 -0.1668,0.16666 q -0.16667,0.16667 -0.33333,0.33334 l -0.16667,0.16666 0.0833,-0.0833"
       id="path3692" />
    <path
       style="fill:#ff0000;fill-opacity:0.639216;stroke-width:1.33333"
       d="m 202.66667,199.33334 v -0.66667 H 203.33334 204 l -0.16666,0.5 q -0.16667,0.5 -0.66667,0.66667 l -0.5,0.16666 v -0.66666"
       id="path3690" />
    <path
       style="fill:#ff0000;fill-opacity:0.760784;stroke-width:1.33333"
       d="m 190.66667,199.33334 v -0.66667 h 0.66667 q 0.66666,0 0.66666,0.66667 V 200 h -0.66666 -0.66667 v -0.66666"
       id="path3688" />
    <path
       style="fill:#ff0000;fill-opacity:0.0156863;stroke-width:1.33333"
       d="m 204,198 v -0.66666 l 0.5,-0.16667 L 205,197 l -0.375,0.12494 -0.375,0.12493 0.25,-0.0833 q 0.25,-0.0833 0.375,-0.20834 l 0.12494,-0.12493 -0.0625,0.0625 -0.0625,0.0625 0.41667,0.375 0.41666,0.375 0.0625,-0.10414 0.0625,-0.10413 -0.12493,0.20833 Q 205.5834,197.9167 205.5,198.1667 l -0.0833,0.25 0.12493,-0.375 0.12494,-0.375 -0.16667,0.5 -0.16653,0.49993 H 204.66667 204 V 198"
       id="path3686" />
    <path
       style="fill:#ff0000;fill-opacity:0.94902;stroke-width:1.33333"
       d="m 202.66667,198 q 0,-0.66666 0.66667,-0.66666 H 204 V 198 v 0.66667 h -0.66666 -0.66667 V 198"
       id="path3684" />
    <path
       style="fill:#ff0000;fill-opacity:0.00784314;stroke-width:1.33333"
       d="m 205,196.66667 v -0.33333 0.25 0.25 -0.16667 Q 205,196.5 204.87507,196.375 l -0.12493,-0.12493 0.0625,0.0625 0.0625,0.0625 0.41667,-0.375 0.41667,-0.375 -0.0625,-0.10414 -0.0625,-0.10413 0.12493,0.20833 Q 205.83334,195.83334 206,196 l 0.16667,0.16667 -0.25,-0.25 -0.25,-0.25 L 206,196 q 0.33334,0.33334 0.33334,0.66667 0,0.33333 -0.33334,0.66667 l -0.33333,0.33333 0.25,-0.25 0.25,-0.25 L 206,197.33334 q -0.16666,0.16666 -0.29166,0.375 l -0.12494,0.20833 0.0625,-0.10413 0.0625,-0.10414 -0.41667,-0.375 -0.41666,-0.375 -0.0625,0.0625 -0.0625,0.0625 0.12493,-0.12493 Q 205,196.83334 205,196.66667 V 196.5 v 0.25 0.25 -0.33333"
       id="path3682" />
    <path
       style="fill:#ff0000;fill-opacity:0.0196078;stroke-width:1.33333"
       d="M 204,196.66667 V 196 l 0.5,0.16667 q 0.5,0.16667 0.5,0.5 0,0.33333 -0.5,0.5 l -0.5,0.16667 v -0.66667"
       id="path3680" />
    <path
       style="fill:#ff0000;fill-opacity:0.0627451;stroke-width:1.33333"
       d="M 189.5,196.5 189.33334,196 H 190 h 0.66667 l 0.16667,0.5 Q 191,197 190.64583,197.35416 l -0.35416,0.35418 0.0625,0.10413 0.0625,0.10413 -0.12494,-0.20833 Q 190.16667,197.5 190,197.33334 l -0.16666,-0.16667 0.25,0.25 0.25,0.25 L 190,197.33334 Q 189.66667,197 189.5,196.5"
       id="path3678" />
    <path
       style="fill:#ff0000;fill-opacity:0.635294;stroke-width:1.33333"
       d="M 189.16667,195.5 189,195 l 0.12494,0.375 0.12493,0.375 -0.0833,-0.25 q -0.0833,-0.25 -0.20834,-0.45833 l -0.12493,-0.20833 0.0625,0.10413 0.0625,0.10413 0.39582,-0.39584 0.39584,-0.39582 -0.0833,-0.0833 -0.0833,-0.0833 0.16666,0.16667 q 0.16667,0.16666 0.41667,0.25 l 0.25,0.0833 -0.375,-0.12493 -0.375,-0.12494 0.5,0.16667 q 0.5,0.1666 0.5,0.83327 V 196 H 190 189.33334 l -0.16667,-0.5"
       id="path3676" />
    <path
       style="fill:#ff0000;fill-opacity:0.00392157;stroke-width:1.33333"
       d="m 203.83334,194.16667 -0.16667,-0.5 0.12493,0.375 0.12494,0.375 -0.0833,-0.25 q -0.0833,-0.25 -0.25,-0.41667 l -0.16666,-0.16666 0.0833,0.0833 0.0833,0.0833 0.39583,-0.39584 0.39584,-0.39582 -0.0625,-0.10414 -0.0625,-0.10413 0.12494,0.20833 q 0.12526,0.20827 0.29193,0.37494 l 0.16667,0.16666 -0.25,-0.25 -0.25,-0.25 0.33333,0.33334 q 0.33333,0.33333 0.5,0.83333 0.16667,0.5 0.33333,1 l 0.16667,0.5 -0.12493,-0.375 -0.12494,-0.375 0.0833,0.25 q 0.0833,0.25 0.20833,0.45833 l 0.12493,0.20834 -0.0625,-0.10414 -0.0625,-0.10413 -0.41667,0.375 -0.41667,0.375 0.0625,0.0625 0.0625,0.0625 -0.12493,-0.12494 q -0.12494,-0.12493 -0.375,-0.20833 l -0.25,-0.0833 0.375,0.12493 0.375,0.12493 -0.5,-0.16666 L 204,196 v -0.66666 q 0,-0.66667 -0.16666,-1.16667"
       id="path3674" />
    <path
       style="fill:#ff0000;fill-opacity:0.823529;stroke-width:1.33333"
       d="m 202.66667,194 v -0.66666 l 0.5,0.16666 q 0.5,0.16667 0.66667,0.66667 0.16666,0.5 0.16666,1.16667 V 196 h -0.66666 q -0.66667,0 -0.66667,-0.66666 0,-0.66667 0,-1.33334"
       id="path3672" />
    <path
       style="fill:#ff0000;fill-opacity:0.027451;stroke-width:1.33333"
       d="m 188.16667,193.83334 -0.16667,-0.5 h 0.66667 0.66667 l 0.16666,0.5 0.16667,0.5 -0.12493,-0.375 -0.12494,-0.375 0.0833,0.25 q 0.0833,0.25 0.25,0.41666 l 0.16666,0.16667 -0.0833,-0.0833 -0.0833,-0.0833 -0.39584,0.39583 -0.39583,0.39584 0.0625,0.10413 0.0625,0.10414 -0.12494,-0.20834 q -0.12526,-0.20826 -0.29193,-0.37493 L 188.5,194.5 l 0.25,0.25 0.25,0.25 -0.33333,-0.33333 q -0.33333,-0.33333 -0.5,-0.83333"
       id="path3670" />
    <path
       style="fill:#ff0000;fill-opacity:0.733333;stroke-width:1.33333"
       d="M 202.66667,192.66667 V 192 H 203.33334 204 l 0.16667,0.5 0.16667,0.5 -0.12494,-0.375 -0.12493,-0.375 0.0833,0.25 q 0.0833,0.25 0.20834,0.45834 l 0.12493,0.20833 -0.0625,-0.10413 -0.0625,-0.10414 -0.39584,0.39583 -0.39582,0.39584 0.0833,0.0833 0.0833,0.0833 -0.16666,-0.16667 q -0.16667,-0.16667 -0.41667,-0.25 l -0.25,-0.0833 0.375,0.12493 0.375,0.12493 -0.5,-0.16666 -0.5,-0.1666 v -0.66667"
       id="path3668" />
    <path
       style="fill:#ff0000;fill-opacity:0.721569;stroke-width:1.33333"
       d="m 187.83334,192.83334 -0.16667,-0.5 0.12493,0.375 0.12494,0.375 -0.0833,-0.25 q -0.0833,-0.25 -0.20833,-0.45834 l -0.12493,-0.20833 0.0625,0.10413 0.0625,0.10414 0.39583,-0.39584 0.39584,-0.39583 -0.0833,-0.0833 -0.0833,-0.0833 0.16667,0.16667 q 0.16667,0.16667 0.41667,0.25 l 0.25,0.0833 -0.375,-0.12493 -0.375,-0.12493 0.5,0.16666 q 0.5,0.1666 0.5,0.83327 v 0.66667 H 188.66667 188 l -0.16666,-0.5"
       id="path3666" />
    <path
       style="fill:#ff0000;fill-opacity:0.552941;stroke-width:1.33333"
       d="m 202.66667,191.33334 v -0.66667 l 0.5,-0.16667 0.5,-0.16666 -0.375,0.12493 -0.375,0.12493 0.25,-0.0833 q 0.25,-0.0833 0.41667,-0.25 l 0.16666,-0.16667 -0.0833,0.0833 -0.0833,0.0833 0.39582,0.43749 0.39584,0.43751 0.0625,-0.0625 0.0625,-0.0625 -0.12493,0.12494 q -0.12494,0.12493 -0.20834,0.375 l -0.0833,0.25 0.12493,-0.375 0.12494,-0.375 -0.16667,0.5 L 204,192 h -0.66666 -0.66667 v -0.66666"
       id="path3664" />
    <path
       style="fill:#ff0000;fill-opacity:0.109804;stroke-width:1.33333"
       d="M 186.66667,191.33334 186.33334,191 l 0.375,-0.375 0.375,-0.375 -0.0833,-0.0833 -0.0833,-0.0833 0.16667,0.16666 q 0.16666,0.16667 0.41666,0.25 l 0.25,0.0833 -0.375,-0.12494 -0.375,-0.12493 0.5,0.16667 0.5,0.16666 0.16667,0.5 0.16667,0.5 -0.12494,-0.375 -0.12493,-0.375 0.0833,0.25 q 0.0833,0.25 0.25,0.41667 l 0.16667,0.16667 -0.0833,-0.0833 -0.0833,-0.0833 -0.39584,0.39583 -0.39582,0.39584 0.0625,0.10413 0.0625,0.10413 -0.12493,-0.20833 Q 187.5,192.16667 187.33334,192 l -0.16667,-0.16666 0.25,0.25 0.25,0.25 L 187.33334,192 Q 187,191.66667 186.66667,191.33334 m -0.41667,-0.41667 0.0833,0.0833 0.25,0.25 0.25,0.25 -0.16667,-0.16666 Q 186.5,191.16667 186.33334,191 l -0.16667,-0.16666 0.0833,0.0833"
       id="path3662" />
    <path
       style="fill:#ff0000;fill-opacity:0.00392157;stroke-width:1.33333"
       d="m 203.83334,189.83334 0.16666,-0.5 0.5,0.16666 q 0.5,0.16667 0.83334,0.5 0.33333,0.33334 0.66666,0.66667 0.33334,0.33333 0.33334,0.66667 0,0.33333 -0.33334,0.33333 -0.33333,0 -0.66666,-0.33333 Q 205,191 204.66667,191 h -0.33333 0.25 0.25 -0.16667 q -0.16667,0 -0.29167,0.12494 l -0.12493,0.12493 0.0625,-0.0625 0.0625,-0.0625 -0.39584,-0.4375 -0.39583,-0.4375 -0.0833,0.0833 -0.0833,0.0833 0.16667,-0.16667 q 0.16667,-0.16666 0.25,-0.41666 l 0.0833,-0.25 -0.12493,0.375 -0.12493,0.375 0.16666,-0.5"
       id="path3660" />
    <path
       style="fill:#ff0000;fill-opacity:0.0666667;stroke-width:1.33333"
       d="m 202.5,190.16667 -0.16666,-0.5 0.12493,0.375 0.12493,0.375 -0.0833,-0.25 q -0.0833,-0.25 -0.25,-0.41667 l -0.16667,-0.16666 0.0833,0.0833 0.0833,0.0833 0.43749,-0.39584 0.43751,-0.39582 -0.0625,-0.0625 -0.0625,-0.0625 0.12494,0.12493 q 0.12493,0.12494 0.375,0.20834 l 0.25,0.0833 -0.375,-0.12493 -0.375,-0.12494 0.5,0.16667 0.5,0.16667 -0.16667,0.5 q -0.16667,0.5 -0.66667,0.66666 l -0.49973,0.16667 -0.16667,-0.5"
       id="path3658" />
    <path
       style="fill:#ff0000;fill-opacity:0.866667;stroke-width:1.33333"
       d="m 186.83334,189.83334 -0.16667,-0.5 h 0.66667 Q 188,189.33334 188,190 v 0.66667 L 187.5,190.5 q -0.5,-0.16666 -0.66666,-0.66666"
       id="path3656" />
    <path
       style="fill:#ff0000;fill-opacity:0.00392157;stroke-width:1.33333"
       d="M 185.33334,190 185,189.66667 l 0.25,0.25 0.25,0.25 L 185.33334,190 Q 185.16667,189.83334 185,189.75 l -0.16666,-0.0833 0.0833,0.0416 0.0833,0.0416 0.375,-0.41667 0.375,-0.41666 -0.0833,-0.0833 -0.0833,-0.0833 0.16666,0.16667 q 0.16667,0.16666 0.41667,0.25 l 0.25,0.0833 -0.375,-0.12493 -0.375,-0.12494 0.5,0.16667 0.5,0.16667 0.16667,0.5 0.16666,0.5 -0.12493,-0.375 -0.12493,-0.375 0.0833,0.25 q 0.0833,0.25 0.25,0.41666 l 0.16667,0.16667 -0.0833,-0.0833 -0.0833,-0.0833 -0.375,0.375 L 186.33334,191 186,190.66667 Q 185.66667,190.33334 185.33334,190 m 0.75,0.75 0.25,0.25 0.0833,0.0833 0.0833,0.0833 L 186.33334,191 Q 186.16667,190.83334 186,190.66667 l -0.16666,-0.16667 0.25,0.25"
       id="path3654" />
    <path
       style="fill:#ff0000;fill-opacity:0.729412;stroke-width:1.33333"
       d="M 201.33334,188.66667 V 188 l 0.5,-0.16666 0.5,-0.16667 -0.375,0.12493 -0.375,0.12494 0.25,-0.0833 q 0.25,-0.0833 0.41666,-0.25 l 0.16667,-0.16666 -0.0833,0.0833 -0.0833,0.0833 0.41667,0.375 0.41667,0.375 0.0416,-0.0833 0.0416,-0.0833 -0.0833,0.16666 q -0.0833,0.16667 -0.0833,0.33334 v 0.16666 -0.25 -0.25 0.33334 0.33333 -0.25 -0.25 0.16667 q 0,0.16666 0.12493,0.29166 l 0.12494,0.12494 -0.0625,-0.0625 -0.0625,-0.0625 -0.43751,0.39583 -0.43749,0.39584 0.0833,0.0833 0.0833,0.0833 -0.16667,-0.16666 q -0.16667,-0.16667 -0.41667,-0.25 l -0.25,-0.0833 0.375,0.12494 0.375,0.12493 -0.5,-0.16667 q -0.49966,-0.16626 -0.49966,-0.83293"
       id="path3652" />
    <path
       style="fill:#ff0000;fill-opacity:0.564706;stroke-width:1.33333"
       d="M 185.5,188.5 185.33334,188 H 186 q 0.66667,0 0.66667,0.66667 v 0.66667 l -0.5,-0.16667 Q 185.66667,189 185.5,188.5"
       id="path3650" />
    <path
       style="fill:#ff0000;fill-opacity:0.0235294;stroke-width:1.33333"
       d="m 183.66667,188.66667 v -0.33333 0.25 0.25 -0.16667 q 0,-0.16667 -0.0833,-0.33333 l -0.0833,-0.16667 0.0416,0.0833 0.0416,0.0833 0.41667,-0.375 0.41667,-0.375 -0.0833,-0.0833 -0.0833,-0.0833 0.16667,0.16667 q 0.16666,0.16666 0.41666,0.25 l 0.25,0.0833 -0.375,-0.12493 -0.375,-0.12494 0.5,0.16667 0.5,0.16667 0.16667,0.5 0.16667,0.5 -0.12494,-0.375 -0.12493,-0.375 0.0833,0.25 q 0.0833,0.25 0.25,0.41666 l 0.16667,0.16667 -0.0833,-0.0833 -0.0833,-0.0833 -0.375,0.41667 -0.375,0.41667 0.0833,0.0416 0.0833,0.0416 L 185,189.75 q -0.16666,-0.0833 -0.33333,-0.0833 H 184.5 h 0.25 0.25 -0.33333 -0.33333 0.25 0.25 -0.16667 q -0.16667,0 -0.33333,0.0833 l -0.16667,0.0833 0.0833,-0.0416 0.0833,-0.0416 -0.375,-0.41667 -0.375,-0.41667 -0.0416,0.0416 -0.0416,0.0416 0.0833,-0.0833 q 0.0832,-0.0833 0.0832,-0.25 V 188.5 v 0.25 0.25 -0.33333"
       id="path3648" />
    <path
       style="fill:#ff0000;fill-opacity:0.00784314;stroke-width:1.33333"
       d="m 202.5,187.16667 0.16667,-0.5 0.5,0.16667 q 0.5,0.16666 0.5,0.5 0,0.33333 -0.33333,0.66666 L 203,188.33334 l 0.25,-0.25 0.25,-0.25 L 203.33334,188 q -0.16667,0.16667 -0.25,0.33334 L 203,188.5 l 0.0416,-0.0833 0.0416,-0.0833 -0.41666,-0.375 -0.41667,-0.375 -0.0833,0.0833 -0.0833,0.0833 0.16667,-0.16666 q 0.16667,-0.16667 0.25,-0.41667 l 0.0833,-0.25 -0.12493,0.375 -0.12493,0.375 0.16666,-0.5"
       id="path3646" />
    <path
       style="fill:#ff0000;fill-opacity:0.227451;stroke-width:1.33333"
       d="M 201.16667,187.5 Q 201,187 201.35416,186.64583 l 0.35418,-0.35416 -0.10414,-0.0625 -0.10413,-0.0625 0.20833,0.12494 q 0.20834,0.12493 0.45834,0.20833 l 0.25,0.0833 -0.375,-0.12493 -0.375,-0.12493 0.5,0.16666 0.5,0.16667 -0.16667,0.5 q -0.16667,0.5 -0.66667,0.66667 L 201.33334,188 l -0.16667,-0.5"
       id="path3644" />
    <path
       style="fill:#ff0000;fill-opacity:0.882353;stroke-width:1.33333"
       d="m 184.16667,187.16667 -0.16667,-0.5 h 0.66667 q 0.66667,0 0.66667,0.66667 V 188 l -0.5,-0.16666 q -0.5,-0.16667 -0.66667,-0.66667"
       id="path3642" />
    <path
       style="fill:#ff0000;fill-opacity:0.0117647;stroke-width:1.33333"
       d="M 182.66667,187.33334 182.33334,187 l 0.25,0.25 0.25,0.25 -0.16667,-0.16666 q -0.16667,-0.16667 -0.375,-0.29167 l -0.20833,-0.12493 0.10413,0.0625 0.10413,0.0625 0.39583,-0.39584 0.39584,-0.39582 -0.0833,-0.0833 -0.0833,-0.0833 0.16667,0.16667 q 0.16667,0.16666 0.41667,0.25 l 0.25,0.0833 -0.375,-0.12493 -0.375,-0.12494 0.5,0.16667 0.5,0.16667 0.16666,0.5 0.16667,0.5 -0.12493,-0.375 -0.12494,-0.375 0.0833,0.25 q 0.0833,0.25 0.25,0.41666 l 0.16666,0.16667 -0.0833,-0.0833 -0.0833,-0.0833 -0.41667,0.375 -0.41667,0.375 0.0416,0.0833 0.0416,0.0833 -0.0833,-0.16667 Q 183.5,188.16667 183.33334,188 l -0.16667,-0.16666 0.25,0.25 0.25,0.25 L 183.33334,188 Q 183,187.66667 182.66667,187.33334"
       id="path3640" />
    <path
       style="fill:#000000;fill-opacity:0;stroke-width:1.33333"
       d="m 181.5,187.16667 -0.16666,-0.5 0.5,0.16667 q 0.5,0.16666 0.83333,0.5 0.33333,0.33333 0.66667,0.66666 0.33333,0.33334 0.33333,0.66667 0,0.33333 -0.33333,0.33333 Q 183,189 182.66667,188.66667 182.33334,188.33334 182,188 q -0.33333,-0.33333 -0.5,-0.83333"
       id="path3638" />
    <path
       style="fill:#ff0000;fill-opacity:0.839216;stroke-width:1.33333"
       d="m 182.83334,185.83334 -0.16667,-0.5 h 0.66667 Q 184,185.33334 184,186 v 0.66667 L 183.5,186.5 q -0.5,-0.16666 -0.66666,-0.66666"
       id="path3636" />
    <path
       style="fill:#ff0000;fill-opacity:0.00392157;stroke-width:1.33333"
       d="m 181.33334,186 v -0.66666 H 182 h 0.66667 l 0.16667,0.5 0.16666,0.5 -0.12493,-0.375 -0.12493,-0.375 0.0833,0.25 q 0.0833,0.25 0.25,0.41666 l 0.16667,0.16667 -0.0833,-0.0833 -0.0833,-0.0833 -0.39584,0.39583 -0.39583,0.39584 0.10414,0.0625 0.10413,0.0625 -0.20833,-0.12494 q -0.2084,-0.12513 -0.4584,-0.20846 l -0.25,-0.0833 0.375,0.12494 0.375,0.12493 -0.5,-0.16667 -0.5,-0.16653 V 186"
       id="path3634" />
    <path
       style="fill:#ff0000;fill-opacity:0.00392157;stroke-width:1.33333"
       d="m 179,186 q 0,-0.33333 0.33334,-0.33333 0.33333,0 0.66666,0.33333 0.33334,0.33334 0.83334,0.5 l 0.5,0.16667 0.16666,0.5 q 0.16667,0.5 0.5,0.83333 0.33334,0.33334 0.66667,0.66667 Q 183,189 183.33334,189 h 0.33333 -0.25 -0.25 0.16667 q 0.16666,0 0.25,-0.0833 l 0.0833,-0.0833 -0.0416,0.0416 -0.0416,0.0416 0.375,0.41666 0.375,0.41667 0.0833,-0.0416 0.0833,-0.0416 -0.16667,0.0833 Q 184.16667,189.83334 184,190 l -0.16666,0.16667 0.25,-0.25 0.25,-0.25 L 184,190 q -0.33333,0.33334 -0.66666,0.33334 Q 183,190.33334 182.66667,190 182.33334,189.66667 182,189.33334 181.66667,189 181.33334,188.66667 181,188.33334 180.66667,188 180.33334,187.66667 180,187.33334 179.66667,187 179.33334,186.66667 179,186.33334 179,186"
       id="path3632" />
    <path
       style="fill:#ff0000;fill-opacity:0.784314;stroke-width:1.33333"
       d="m 181.16667,184.83334 -0.16667,-0.5 0.12494,0.375 0.12493,0.375 -0.0833,-0.25 q -0.0833,-0.25 -0.25,-0.41667 l -0.16667,-0.16667 0.0833,0.0833 0.0833,0.0833 0.4168,-0.41667 0.41666,-0.41666 -0.0833,-0.0833 -0.0833,-0.0833 0.16666,0.16667 q 0.16667,0.16666 0.41667,0.25 l 0.25,0.0833 -0.375,-0.12493 -0.375,-0.12494 0.5,0.16667 q 0.5,0.16653 0.5,0.8332 v 0.66667 H 182 181.33334 l -0.16667,-0.5"
       id="path3630" />
    <path
       style="fill:#ff0000;fill-opacity:0.905882;stroke-width:1.33333"
       d="m 180,183.33334 v -0.66667 h 0.66667 q 0.66667,0 0.83333,0.5 l 0.16667,0.5 -0.12493,-0.375 -0.12494,-0.375 0.0833,0.25 q 0.0833,0.25 0.25,0.41667 l 0.16666,0.16666 -0.0833,-0.0833 -0.0833,-0.0833 -0.4168,0.41666 -0.41667,0.41667 0.0833,0.0833 0.0833,0.0833 -0.16667,-0.16667 Q 180.75,184.25 180.5,184.16667 l -0.25,-0.0833 0.375,0.12493 0.375,0.12493 -0.5,-0.16666 L 180,184 v -0.66666"
       id="path3628" />
    <path
       style="fill:#ff0000;fill-opacity:0.141176;stroke-width:1.33333"
       d="m 178.83334,183.16667 -0.16667,-0.5 H 179.33334 180 V 183.33334 184 l -0.5,-0.16666 q -0.5,-0.16667 -0.66666,-0.66667"
       id="path3626" />
    <path
       style="fill:#ff0000;fill-opacity:0.807843;stroke-width:1.33333"
       d="m 174.66667,179.33334 v -0.66667 h 0.66667 q 0.66666,0 0.66666,0.66667 V 180 h -0.66666 -0.66667 v -0.66666"
       id="path3624" />
    <path
       style="fill:#ff0000;fill-opacity:0.0705882;stroke-width:1.33333"
       d="M 173.33334,179.33334 173,179 l 0.375,-0.375 0.375,-0.375 -0.0833,-0.0833 -0.0833,-0.0833 0.16666,0.16666 q 0.16667,0.16667 0.41667,0.25 l 0.25,0.0833 -0.375,-0.12494 -0.375,-0.12493 0.5,0.16667 0.5,0.16653 V 179.33334 180 l -0.5,-0.16666 q -0.5,-0.16667 -0.83333,-0.5 M 172.91667,178.91667 173,179 l 0.25,0.25 0.25,0.25 -0.16666,-0.16666 Q 173.16667,179.16667 173,179 l -0.16666,-0.16666 0.0833,0.0833"
       id="path3622" />
    <path
       style="fill:#ff0000;fill-opacity:0.831373;stroke-width:1.33333"
       d="m 173.5,177.83334 -0.16666,-0.5 H 174 q 0.66667,0 0.66667,0.66666 v 0.66667 l -0.5,-0.16667 q -0.5,-0.16666 -0.66667,-0.66666"
       id="path3620" />
    <path
       style="fill:#ff0000;fill-opacity:0.0588235;stroke-width:1.33333"
       d="m 172,178 -0.33333,-0.33333 0.375,-0.375 0.375,-0.375 -0.0833,-0.0833 -0.0833,-0.0833 0.16667,0.16667 q 0.16667,0.16667 0.41667,0.25 l 0.25,0.0833 -0.375,-0.12493 -0.375,-0.12493 0.5,0.16666 0.5,0.16667 0.16666,0.5 0.16667,0.5 -0.12493,-0.375 -0.12494,-0.375 0.0833,0.25 q 0.0833,0.25 0.25,0.41667 l 0.16666,0.16666 -0.0833,-0.0833 -0.0833,-0.0833 -0.375,0.375 L 173,179 172.66667,178.66667 Q 172.33334,178.33334 172,178 m 0.75,0.75 0.25,0.25 0.0833,0.0833 0.0833,0.0833 L 173,179 q -0.16666,-0.16666 -0.33333,-0.33333 L 172.5,178.5 l 0.25,0.25 m -1.16666,-1.16666 0.0833,0.0833 0.25,0.25 0.25,0.25 L 172,178 q -0.16666,-0.16666 -0.33333,-0.33333 L 171.5,177.5 l 0.0833,0.0833"
       id="path3618" />
    <path
       style="fill:#ff0000;fill-opacity:0.8;stroke-width:1.33333"
       d="M 172.16667,176.5 172,176 h 0.66667 q 0.66667,0 0.66667,0.66667 v 0.66667 l -0.5,-0.16667 Q 172.33334,177 172.16667,176.5"
       id="path3616" />
    <path
       style="fill:#ff0000;fill-opacity:0.0156863;stroke-width:1.33333"
       d="m 170.66667,176.66667 -0.33333,-0.33333 0.375,-0.375 0.375,-0.375 L 171,175.5 l -0.0833,-0.0833 0.16667,0.16667 q 0.16666,0.16666 0.41666,0.25 l 0.25,0.0833 -0.375,-0.12493 -0.375,-0.12494 0.5,0.16667 0.5,0.16667 0.16667,0.5 0.16667,0.5 -0.12494,-0.375 -0.12493,-0.375 0.0833,0.25 q 0.0833,0.25 0.25,0.41666 l 0.16667,0.16667 -0.0833,-0.0833 -0.0833,-0.0833 -0.375,0.375 -0.37513,0.37487 -0.33333,-0.33333 Q 171,177 170.66667,176.66667 m 0.75,0.75 0.25,0.25 0.0833,0.0833 0.0833,0.0833 -0.16667,-0.16667 Q 171.5,177.5 171.33334,177.33334 l -0.16667,-0.16667 0.25,0.25 M 170.25,176.25 l 0.0833,0.0833 0.25,0.25 0.25,0.25 -0.16667,-0.16667 Q 170.5,176.5 170.33334,176.33334 l -0.16667,-0.16667 0.0833,0.0833"
       id="path3614" />
    <path
       style="fill:#ff0000;fill-opacity:0.737255;stroke-width:1.33333"
       d="m 170.83334,175.16667 -0.16667,-0.5 h 0.66667 q 0.66666,0 0.66666,0.66667 V 176 l -0.5,-0.16666 q -0.5,-0.16667 -0.66666,-0.66667"
       id="path3612" />
    <path
       style="fill:#ff0000;fill-opacity:0.0470588;stroke-width:1.33333"
       d="m 169.5,175.16667 -0.16666,-0.5 H 170 h 0.66667 l 0.16667,0.5 0.16666,0.5 -0.12493,-0.375 -0.12493,-0.375 0.0833,0.25 q 0.0833,0.25 0.25,0.41667 l 0.16667,0.16666 -0.0833,-0.0833 -0.0833,-0.0833 -0.375,0.375 -0.37513,0.375 L 170,176 q -0.33333,-0.33333 -0.5,-0.83333 m 0.58334,0.91667 0.25,0.25 0.0833,0.0833 0.0833,0.0833 -0.16666,-0.16666 Q 170.16667,176.16667 170,176 l -0.16666,-0.16666 0.25,0.25"
       id="path3610" />
    <path
       style="fill:#ff0000;fill-opacity:0.803922;stroke-width:1.33333"
       d="m 189.33334,174 v -0.66666 H 190 190.66667 V 174 174.66667 H 190 q -0.66666,0 -0.66666,-0.66667"
       id="path3608" />
    <path
       style="fill:#ff0000;fill-opacity:0.505882;stroke-width:1.33333"
       d="m 169.16667,174.16667 -0.16667,-0.5 0.12494,0.375 0.12493,0.375 -0.0833,-0.25 q -0.0833,-0.25 -0.20834,-0.45833 L 168.8333,173.5 l 0.0625,0.10414 0.0625,0.10413 0.39584,-0.39584 0.39582,-0.39583 -0.0833,-0.0833 -0.0833,-0.0833 0.16666,0.16666 q 0.16667,0.16667 0.41667,0.25 l 0.25,0.0833 -0.375,-0.12494 -0.375,-0.12493 0.5,0.16667 q 0.5,0.1666 0.5,0.83326 v 0.66667 H 170 169.33334 l -0.16667,-0.5"
       id="path3606" />
    <path
       style="fill:#ff0000;fill-opacity:0.203922;stroke-width:1.33333"
       d="m 189.16667,172.83334 -0.16667,-0.5 0.12494,0.375 0.12493,0.375 -0.0833,-0.25 q -0.0833,-0.25 -0.25,-0.41667 l -0.16667,-0.16667 0.0833,0.0833 0.0833,0.0833 0.375,-0.375 0.37513,-0.375 L 190,172 q 0.33334,0.33334 0.5,0.83334 l 0.16667,0.5 H 190 189.33334 l -0.16667,-0.5 m 0.75,-0.91667 -0.25,-0.25 -0.0833,-0.0833 -0.0833,-0.0833 0.16667,0.16667 Q 189.83334,171.83334 190,172 l 0.16667,0.16667 -0.25,-0.25"
       id="path3604" />
    <path
       style="fill:#ff0000;fill-opacity:0.905882;stroke-width:1.33333"
       d="M 188,172.66667 V 172 l 0.5,0.16667 q 0.5,0.16667 0.66667,0.66667 l 0.16667,0.5 h -0.66667 Q 188,173.33334 188,172.66667"
       id="path3602" />
    <path
       style="fill:#ff0000;fill-opacity:0.141176;stroke-width:1.33333"
       d="M 168.16667,172.5 168,172 h 0.66667 q 0.66667,0 0.83333,0.5 l 0.16667,0.5 -0.12493,-0.375 -0.12494,-0.375 0.0833,0.25 q 0.0833,0.25 0.25,0.41667 l 0.16666,0.16667 -0.0833,-0.0833 -0.0833,-0.0833 -0.39583,0.39583 -0.39584,0.39584 0.0625,0.10413 0.0625,0.10413 -0.12494,-0.20833 q -0.12526,-0.20827 -0.29193,-0.37493 l -0.16667,-0.16667 0.25,0.25 0.25,0.25 -0.33333,-0.33333 Q 168.33334,173 168.16667,172.5"
       id="path3600" />
    <path
       style="fill:#ff0000;fill-opacity:0.00784314;stroke-width:1.33333"
       d="m 187.83334,171.5 -0.16667,-0.5 0.12493,0.375 0.12494,0.375 -0.0833,-0.25 q -0.0833,-0.25 -0.25,-0.41666 l -0.16666,-0.16667 0.0833,0.0833 0.0833,0.0833 0.375,-0.375 0.37514,-0.375 0.33333,0.33333 Q 189,171 189.33334,171.33334 l 0.33333,0.33333 -0.375,0.375 -0.375,0.375 0.0833,0.0833 0.0833,0.0833 -0.16667,-0.16667 Q 188.75,172.25 188.5,172.16667 l -0.25,-0.0833 0.375,0.12493 0.375,0.12493 -0.5,-0.16666 L 188,172 l -0.16666,-0.5 m 1.91666,0.25 -0.0833,-0.0833 -0.25,-0.25 -0.25,-0.25 0.16667,0.16667 q 0.16666,0.16666 0.33333,0.33333 l 0.16667,0.16667 -0.0833,-0.0833 m -1.16666,-1.16666 -0.25,-0.25 -0.0833,-0.0833 -0.0833,-0.0833 0.16667,0.16667 q 0.16666,0.16666 0.33333,0.33333 l 0.16667,0.16667 -0.25,-0.25"
       id="path3598" />
    <path
       style="fill:#ff0000;fill-opacity:0.690196;stroke-width:1.33333"
       d="m 186.66667,171.33334 v -0.66667 l 0.5,0.16667 q 0.5,0.16666 0.66667,0.66666 L 188,172 h -0.66666 q -0.66667,0 -0.66667,-0.66666"
       id="path3596" />
    <path
       style="fill:#ff0000;fill-opacity:0.0117647;stroke-width:1.33333"
       d="m 186.5,170.16667 -0.16666,-0.5 0.12493,0.375 0.12493,0.375 -0.0833,-0.25 q -0.0833,-0.25 -0.25,-0.41667 l -0.16667,-0.16666 0.0833,0.0833 0.0833,0.0833 0.375,-0.375 L 187,169 l 0.33334,0.33334 Q 187.66667,169.66667 188,170 l 0.33334,0.33334 -0.375,0.375 -0.375,0.375 0.0833,0.0833 0.0833,0.0833 -0.16666,-0.16666 q -0.16667,-0.16667 -0.41667,-0.25 l -0.25,-0.0833 0.375,0.12494 0.375,0.12493 -0.5,-0.16667 -0.5,-0.16653 -0.16667,-0.5 m 1.91667,0.25 -0.0833,-0.0833 -0.25,-0.25 -0.25,-0.25 L 188,170 q 0.16667,0.16667 0.33334,0.33334 L 188.5,170.5 188.4167,170.4167 M 187.25,169.25 187,169 186.9167,168.9167 186.8334,168.8334 187,169 q 0.16667,0.16667 0.33334,0.33334 L 187.5,169.5 l -0.25,-0.25"
       id="path3594" />
    <path
       style="fill:#ff0000;fill-opacity:0.65098;stroke-width:1.33333"
       d="m 185.33334,170 v -0.66666 l 0.5,0.16666 q 0.5,0.16667 0.66666,0.66667 l 0.16667,0.5 H 186 q -0.66666,0 -0.66666,-0.66667"
       id="path3592" />
    <path
       style="fill:#ff0000;fill-opacity:0.0196078;stroke-width:1.33333"
       d="M 185.33334,168.66667 V 168 l 0.5,0.16667 q 0.5,0.16667 0.83333,0.5 L 187,169 l -0.375,0.375 -0.375,0.375 0.0833,0.0833 0.0833,0.0833 -0.1666,-0.1666 q -0.16666,-0.16666 -0.41666,-0.25 l -0.25,-0.0833 0.375,0.12493 0.375,0.12494 -0.5,-0.16667 -0.5,-0.16653 v -0.66667 m 1.75,0.41667 L 187,169 l -0.25,-0.25 -0.25,-0.25 0.16667,0.16667 Q 186.83334,168.83334 187,169 l 0.16667,0.16667 -0.0833,-0.0833"
       id="path3590" />
    <path
       style="fill:#ff0000;fill-opacity:0.635294;stroke-width:1.33333"
       d="m 183.83334,168.83334 -0.16667,-0.5 0.12493,0.375 0.12494,0.375 -0.0833,-0.25 q -0.0833,-0.25 -0.25,-0.41667 l -0.16666,-0.16667 0.0833,0.0833 0.0833,0.0833 0.39583,-0.39583 0.39584,-0.39584 -0.10413,-0.0625 -0.10414,-0.0625 0.20834,0.12493 q 0.20833,0.12493 0.45833,0.20833 l 0.25,0.0833 -0.375,-0.12494 -0.375,-0.12493 0.5,0.16667 0.50007,0.16666 v 0.66667 0.66667 h -0.66667 q -0.66667,0 -0.83333,-0.5"
       id="path3588" />
    <path
       style="fill:#ff0000;fill-opacity:0.380392;stroke-width:1.33333"
       d="m 182.5,167.5 -0.16666,-0.5 0.12493,0.375 0.12493,0.375 -0.0833,-0.25 q -0.0833,-0.25 -0.25,-0.41666 l -0.16667,-0.16667 0.0833,0.0833 0.0833,0.0833 0.375,-0.375 0.37513,-0.375 0.33334,0.33333 Q 183.66667,167 184,167.33334 l 0.33334,0.33333 -0.25,-0.25 -0.25,-0.25 0.16666,0.16667 q 0.16667,0.16666 0.375,0.29166 l 0.20834,0.12494 -0.10414,-0.0625 -0.10413,-0.0625 -0.39584,0.39584 -0.39583,0.39583 0.0833,0.0833 0.0833,0.0833 -0.16667,-0.16666 q -0.16666,-0.16667 -0.41666,-0.25 l -0.25,-0.0833 0.375,0.12494 0.375,0.12493 -0.5,-0.16667 q -0.5,-0.16666 -0.66667,-0.66666 m 0.75,-0.91667 -0.25,-0.25 -0.0833,-0.0833 -0.0833,-0.0833 0.16667,0.16667 q 0.16667,0.16667 0.33333,0.33333 l 0.16667,0.16667 -0.25,-0.25"
       id="path3586" />
    <path
       style="fill:#ff0000;fill-opacity:0.156863;stroke-width:1.33333"
       d="m 181.16667,166.16667 -0.16667,-0.5 0.12494,0.375 0.12493,0.375 -0.0833,-0.25 q -0.0833,-0.25 -0.25,-0.41667 l -0.16667,-0.16666 0.0833,0.0833 0.0833,0.0833 0.375,-0.375 L 181.66667,165 182,165.33334 q 0.33334,0.33333 0.66667,0.66666 l 0.33333,0.33334 -0.375,0.375 -0.375,0.375 0.0833,0.0833 0.0833,0.0833 -0.16667,-0.16666 q -0.16666,-0.16667 -0.41666,-0.25 l -0.25,-0.0833 0.375,0.12494 0.375,0.12493 -0.5,-0.16667 q -0.5,-0.16666 -0.66667,-0.66666 m 1.91667,0.25 -0.0833,-0.0833 -0.25,-0.25 -0.25,-0.25 0.16667,0.16667 q 0.16667,0.16667 0.33333,0.33333 l 0.16667,0.16667 -0.0833,-0.0833 m -1.16667,-1.16667 -0.25,-0.25 -0.0833,-0.0833 -0.0833,-0.0833 0.16667,0.16667 q 0.16667,0.16667 0.33333,0.33333 l 0.16667,0.16667 -0.25,-0.25"
       id="path3584" />
    <path
       style="fill:#ff0000;fill-opacity:0.14902;stroke-width:1.33333"
       d="m 179.83334,164.83334 -0.16667,-0.5 0.12493,0.375 0.12494,0.375 -0.0833,-0.25 q -0.0833,-0.25 -0.25,-0.41667 l -0.16666,-0.16667 0.0833,0.0833 0.0833,0.0833 0.375,-0.375 0.37514,-0.375 0.33333,0.33333 q 0.33333,0.33334 0.66667,0.66667 l 0.33333,0.33333 -0.375,0.375 -0.375,0.375 0.0833,0.0833 0.0833,0.0833 -0.16667,-0.16667 Q 180.75,165.58334 180.5,165.5 l -0.25,-0.0833 0.375,0.12493 0.375,0.12494 -0.5,-0.16667 -0.5,-0.16653 -0.16666,-0.5 m 1.91666,0.25 -0.0833,-0.0833 -0.25,-0.25 -0.25,-0.25 0.16667,0.16667 q 0.16663,0.1666 0.3333,0.33326 l 0.16667,0.16667 -0.0833,-0.0833 m -1.16666,-1.16667 -0.25,-0.25 -0.0833,-0.0833 -0.0833,-0.0833 0.16667,0.16667 Q 180.5,163.83334 180.66667,164 l 0.16667,0.16667 -0.25,-0.25"
       id="path3582" />
    <path
       style="fill:#ff0000;fill-opacity:0.956863;stroke-width:1.33333"
       d="M 178.66667,164.66667 V 164 l 0.5,0.16667 q 0.5,0.16667 0.66667,0.66667 l 0.16666,0.5 h -0.66666 q -0.66667,0 -0.66667,-0.66667"
       id="path3580" />
    <path
       style="fill:#ff0000;fill-opacity:0.160784;stroke-width:1.33333"
       d="m 178.5,163.5 -0.16666,-0.5 0.12493,0.375 0.12493,0.375 -0.0833,-0.25 q -0.0833,-0.25 -0.25,-0.41666 l -0.16667,-0.16667 0.0833,0.0833 0.0833,0.0833 0.375,-0.375 0.37513,-0.375 0.33334,0.33333 Q 179.66667,163 180,163.33334 l 0.33334,0.33333 -0.375,0.375 -0.375,0.375 0.0833,0.0833 0.0833,0.0833 -0.16666,-0.16667 q -0.16667,-0.16667 -0.41667,-0.25 l -0.25,-0.0833 0.375,0.12493 0.375,0.12493 -0.5,-0.16666 -0.5,-0.16654 -0.16667,-0.5 m 1.91667,0.25 -0.0833,-0.0833 -0.25,-0.25 -0.25,-0.25 0.16666,0.16667 q 0.16667,0.16666 0.33334,0.33333 l 0.16666,0.16667 -0.0833,-0.0833 m -1.16667,-1.16666 -0.25,-0.25 -0.0833,-0.0833 -0.0833,-0.0833 0.16666,0.16667 q 0.16667,0.16666 0.33334,0.33333 l 0.16666,0.16667 -0.25,-0.25"
       id="path3578" />
    <path
       style="fill:#ff0000;fill-opacity:0.92549;stroke-width:1.33333"
       d="m 177.33334,163.33334 v -0.66667 l 0.5,0.16667 Q 178.33334,163 178.5,163.5 l 0.16667,0.5 H 178 q -0.66666,0 -0.66666,-0.66666"
       id="path3576" />
    <path
       style="fill:#ff0000;fill-opacity:0.0313725;stroke-width:1.33333"
       d="m 177.33334,162 v -0.66666 l 0.5,0.16666 q 0.5,0.16667 0.83333,0.5 l 0.33333,0.33334 -0.375,0.375 -0.375,0.375 0.0833,0.0833 0.0833,0.0833 -0.16667,-0.16666 q -0.16666,-0.16667 -0.41666,-0.25 l -0.25,-0.0833 0.375,0.12494 0.375,0.12493 -0.5,-0.16667 -0.5,-0.16653 V 162 m 1.75,0.41667 -0.0833,-0.0833 -0.25,-0.25 -0.25,-0.25 0.16667,0.16666 q 0.16667,0.16667 0.33333,0.33334 l 0.16667,0.16666 -0.0833,-0.0833"
       id="path3574" />
    <path
       style="fill:#ff0000;fill-opacity:0.709804;stroke-width:1.33333"
       d="m 175.83334,162.16667 -0.16667,-0.5 0.12493,0.375 0.12494,0.375 -0.0833,-0.25 q -0.0833,-0.25 -0.25,-0.41667 l -0.16666,-0.16666 0.0833,0.0833 0.0833,0.0833 0.39583,-0.39582 0.39584,-0.39584 -0.10413,-0.0625 -0.10414,-0.0625 0.20834,0.12493 q 0.20833,0.12494 0.45833,0.20834 l 0.25,0.0833 -0.375,-0.12493 -0.375,-0.12494 0.5,0.16667 0.50007,0.16667 V 162 v 0.66667 h -0.66667 q -0.66667,0 -0.83333,-0.5"
       id="path3572" />
    <path
       style="fill:#ff0000;fill-opacity:0.298039;stroke-width:1.33333"
       d="m 174.5,160.83334 -0.16666,-0.5 0.12493,0.375 0.12493,0.375 -0.0833,-0.25 q -0.0833,-0.25 -0.25,-0.41667 l -0.16667,-0.16667 0.0833,0.0833 0.0833,0.0833 0.375,-0.375 L 175,159.66667 175.33334,160 q 0.33333,0.33334 0.66666,0.66667 l 0.33334,0.33333 -0.25,-0.25 -0.25,-0.25 0.16666,0.16667 q 0.16667,0.16667 0.375,0.29167 l 0.20834,0.12493 -0.10414,-0.0625 -0.10413,-0.0625 -0.39584,0.39584 -0.39583,0.39583 0.0833,0.0833 0.0833,0.0833 -0.16667,-0.16667 q -0.16666,-0.16667 -0.41666,-0.25 l -0.25,-0.0833 0.375,0.12493 0.375,0.12493 -0.5,-0.16666 q -0.5,-0.16667 -0.66667,-0.66667 m 0.75,-0.91667 -0.25,-0.25 -0.0833,-0.0833 -0.0833,-0.0833 0.16667,0.16666 q 0.16667,0.16667 0.33333,0.33334 l 0.16667,0.16666 -0.25,-0.25"
       id="path3570" />
    <path
       style="fill:#ff0000;fill-opacity:0.0862745;stroke-width:1.33333"
       d="M 173.16667,159.5 173,159 l 0.12494,0.375 0.12493,0.375 -0.0833,-0.25 q -0.0833,-0.25 -0.25,-0.41666 l -0.16667,-0.16667 0.0833,0.0833 0.0833,0.0833 0.375,-0.375 0.37513,-0.375 0.33333,0.33333 q 0.33334,0.33333 0.66667,0.66667 l 0.33333,0.33333 -0.375,0.375 -0.375,0.375 0.0833,0.0833 0.0833,0.0833 -0.16667,-0.16667 q -0.16666,-0.16667 -0.41666,-0.25 l -0.25,-0.0833 0.375,0.12493 0.375,0.12493 -0.5,-0.16666 -0.5,-0.16654 -0.16667,-0.5 m 1.91667,0.25 -0.0833,-0.0833 -0.25,-0.25 -0.25,-0.25 0.16667,0.16667 Q 174.83334,159.5 175,159.66667 l 0.16667,0.16667 -0.0833,-0.0833 m -1.16667,-1.16666 -0.25,-0.25 -0.0833,-0.0833 -0.0833,-0.0833 0.16667,0.16667 Q 173.83334,158.5 174,158.66667 l 0.16667,0.16667 -0.25,-0.25"
       id="path3568" />
    <path
       style="fill:#ff0000;fill-opacity:0.87451;stroke-width:1.33333"
       d="m 172,159.33334 v -0.66667 l 0.5,0.16667 Q 173,159 173.16667,159.5 l 0.16667,0.5 h -0.66667 Q 172,160 172,159.33334"
       id="path3566" />
    <path
       style="fill:#ff0000;fill-opacity:0.0117647;stroke-width:1.33333"
       d="m 171.83334,158.16667 -0.16667,-0.5 0.12493,0.375 0.12494,0.375 -0.0833,-0.25 q -0.0833,-0.25 -0.25,-0.41667 l -0.16666,-0.16666 0.0833,0.0833 0.0833,0.0833 0.375,-0.375 0.37514,-0.375 0.33333,0.33334 Q 173,157.66667 173.33334,158 l 0.33333,0.33334 -0.375,0.375 -0.375,0.375 0.0833,0.0833 0.0833,0.0833 -0.16667,-0.16666 q -0.16667,-0.16667 -0.41667,-0.25 l -0.25,-0.0833 0.375,0.12494 0.375,0.12493 -0.5,-0.16667 -0.5,-0.16653 -0.16666,-0.5 m 1.91666,0.25 -0.0833,-0.0833 -0.25,-0.25 -0.25,-0.25 0.16667,0.16666 q 0.16666,0.16667 0.33333,0.33334 l 0.16667,0.16666 -0.0833,-0.0833 m -1.16666,-1.16667 -0.25,-0.25 -0.0833,-0.0833 -0.0833,-0.0833 0.16667,0.16666 q 0.16666,0.16667 0.33333,0.33334 l 0.16667,0.16666 -0.25,-0.25"
       id="path3564" />
    <path
       style="fill:#ff0000;fill-opacity:0.792157;stroke-width:1.33333"
       d="m 170.66667,158 v -0.66666 l 0.5,0.16666 q 0.5,0.16667 0.66667,0.66667 l 0.16666,0.5 h -0.66666 q -0.66667,0 -0.66667,-0.66667"
       id="path3562" />
    <path
       style="fill:#ff0000;fill-opacity:0.0156863;stroke-width:1.33333"
       d="m 170.5,156.83334 -0.16666,-0.5 0.12493,0.375 0.12493,0.375 -0.0833,-0.25 q -0.0833,-0.25 -0.25,-0.41667 l -0.16667,-0.16667 0.0833,0.0833 0.0833,0.0833 0.375,-0.375 L 171,155.66667 171.33334,156 q 0.33333,0.33334 0.66666,0.66667 l 0.33334,0.33333 -0.375,0.375 -0.375,0.375 0.0833,0.0833 0.0833,0.0833 -0.16666,-0.16667 q -0.16667,-0.16666 -0.41667,-0.25 l -0.25,-0.0833 0.375,0.12493 0.375,0.12494 -0.5,-0.16667 -0.5,-0.16653 -0.16667,-0.5 m 1.91667,0.25 -0.0833,-0.0833 -0.25,-0.25 -0.25,-0.25 0.16666,0.16667 q 0.16667,0.16667 0.33334,0.33333 l 0.16666,0.16667 -0.0833,-0.0833 m -1.16667,-1.16667 -0.25,-0.25 -0.0833,-0.0833 -0.0833,-0.0833 0.16666,0.16667 q 0.16667,0.16667 0.33334,0.33333 l 0.16666,0.16667 -0.25,-0.25"
       id="path3560" />
    <path
       style="fill:#ff0000;fill-opacity:0.607843;stroke-width:1.33333"
       d="M 169.33334,156.66667 V 156 l 0.5,0.16667 q 0.5,0.16667 0.66666,0.66667 l 0.16667,0.5 H 170 q -0.66666,0 -0.66666,-0.66667"
       id="path3558" />
    <path
       style="fill:#ff0000;fill-opacity:0.00784314;stroke-width:1.33333"
       d="m 169.33334,155.33334 v -0.66667 l 0.5,0.16667 q 0.5,0.16666 0.83333,0.5 l 0.33333,0.33333 -0.375,0.375 -0.375,0.375 0.0833,0.0833 0.0833,0.0833 -0.16667,-0.16667 q -0.16666,-0.16667 -0.41666,-0.25 l -0.25,-0.0833 0.375,0.12493 0.375,0.12493 -0.5,-0.16666 -0.5,-0.16654 v -0.66666 m 1.75,0.41666 -0.0833,-0.0833 -0.25,-0.25 -0.25,-0.25 0.16667,0.16667 Q 170.83334,155.5 171,155.66667 l 0.16667,0.16667 -0.0833,-0.0833"
       id="path3556" />
    <path
       style="fill:#ff0000;fill-opacity:0.603922;stroke-width:1.33333"
       d="m 167.83334,155.5 -0.16667,-0.5 0.12493,0.375 0.12494,0.375 -0.0833,-0.25 q -0.0833,-0.25 -0.25,-0.41666 l -0.16666,-0.16667 0.0833,0.0833 0.0833,0.0833 0.4168,-0.41667 0.41667,-0.41667 -0.0833,-0.0833 -0.0833,-0.0833 0.16667,0.16666 q 0.16667,0.16667 0.41667,0.25 l 0.25,0.0833 -0.375,-0.12494 -0.375,-0.12493 0.5,0.16667 0.5,0.16653 V 155.33334 156 h -0.66667 Q 168,156 167.83334,155.5"
       id="path3554" />
    <path
       style="fill:#ff0000;fill-opacity:0.678431;stroke-width:1.33333"
       d="m 166.66667,154 v -0.66666 H 167.33334 168 l 0.16667,0.5 0.16667,0.5 -0.12494,-0.375 -0.12493,-0.375 0.0833,0.25 q 0.0833,0.25 0.25,0.41666 l 0.16667,0.16667 -0.0833,-0.0833 -0.0833,-0.0833 -0.4168,0.41667 -0.41666,0.41667 0.0833,0.0833 0.0833,0.0833 -0.16666,-0.16666 q -0.16667,-0.16667 -0.41667,-0.25 l -0.25,-0.0833 0.375,0.12494 0.375,0.12493 -0.5,-0.16667 q -0.5,-0.16653 -0.5,-0.8332"
       id="path3552" />
    <path
       style="fill:#ff0000;fill-opacity:0.0196078;stroke-width:1.33333"
       d="m 166.5,152.83334 -0.16666,-0.5 0.12493,0.375 0.12493,0.375 -0.0833,-0.25 q -0.0833,-0.25 -0.25,-0.41667 l -0.16667,-0.16667 0.0833,0.0833 0.0833,0.0833 0.39584,-0.39583 0.39583,-0.39584 -0.0625,-0.10413 -0.0625,-0.10413 0.12493,0.20833 q 0.12527,0.20827 0.29194,0.37493 l 0.16666,0.16667 -0.25,-0.25 -0.25,-0.25 0.33334,0.33333 q 0.33333,0.33334 0.5,0.83334 l 0.16666,0.5 h -0.66666 -0.66667 l -0.16667,-0.5"
       id="path3550" />
    <path
       style="fill:#ff0000;fill-opacity:0.376471;stroke-width:1.33333"
       d="m 165.33334,151.33334 v -0.66667 H 166 h 0.66667 l 0.16667,0.5 0.16666,0.5 -0.12493,-0.375 -0.12493,-0.375 0.0833,0.25 q 0.0833,0.25 0.20833,0.45833 l 0.12494,0.20834 -0.0625,-0.10414 -0.0625,-0.10413 -0.39583,0.39584 -0.39584,0.39583 0.0833,0.0833 0.0833,0.0833 -0.16667,-0.16666 q -0.16666,-0.16667 -0.41666,-0.25 l -0.25,-0.0833 0.375,0.12494 0.375,0.12493 -0.5,-0.16667 q -0.5,-0.1666 -0.5,-0.83326"
       id="path3548" />
    <path
       style="fill:#ff0000;fill-opacity:0.0509804;stroke-width:1.33333"
       d="m 165.16667,150.16667 -0.16667,-0.5 0.12494,0.375 0.12493,0.375 -0.0833,-0.25 q -0.0833,-0.25 -0.25,-0.41667 l -0.16667,-0.16666 0.0833,0.0833 0.0833,0.0833 0.375,-0.375 L 165.66667,149 166,149.33334 q 0.33334,0.33333 0.5,0.83333 l 0.16667,0.5 H 166 165.33334 l -0.16667,-0.5 m 0.75,-0.91667 -0.25,-0.25 -0.0833,-0.0833 -0.0833,-0.0833 0.16667,0.16666 q 0.16667,0.16667 0.33333,0.33334 l 0.16667,0.16666 -0.25,-0.25"
       id="path3546" />
    <path
       style="fill:#ff0000;fill-opacity:0.807843;stroke-width:1.33333"
       d="m 164,150 v -0.66666 l 0.5,0.16666 q 0.5,0.16667 0.66667,0.66667 l 0.16667,0.5 h -0.66667 Q 164,150.66667 164,150"
       id="path3544" />
    <path
       style="fill:#ff0000;fill-opacity:0.227451;stroke-width:1.33333"
       d="m 163.83334,148.83334 -0.16667,-0.5 0.12493,0.375 0.12494,0.375 -0.0833,-0.25 q -0.0833,-0.25 -0.25,-0.41667 l -0.16666,-0.16667 0.0833,0.0833 0.0833,0.0833 0.375,-0.375 0.37514,-0.375 0.33333,0.33333 q 0.33333,0.33334 0.66667,0.66667 l 0.33333,0.33333 -0.375,0.375 -0.375,0.375 0.0833,0.0833 0.0833,0.0833 -0.16667,-0.16667 Q 164.75,149.58334 164.5,149.5 l -0.25,-0.0833 0.375,0.12493 0.375,0.12494 -0.5,-0.16667 -0.5,-0.16653 -0.16666,-0.5 m 1.91666,0.25 -0.0833,-0.0833 -0.25,-0.25 -0.25,-0.25 0.16667,0.16667 q 0.16663,0.1666 0.3333,0.33326 l 0.16667,0.16667 -0.0833,-0.0833 m -1.16666,-1.16667 -0.25,-0.25 -0.0833,-0.0833 -0.0833,-0.0833 0.16667,0.16667 Q 164.5,147.83334 164.66667,148 l 0.16667,0.16667 -0.25,-0.25"
       id="path3542" />
    <path
       style="fill:#ff0000;fill-opacity:0.984314;stroke-width:1.33333"
       d="M 162.66667,148.66667 V 148 l 0.5,0.16667 q 0.5,0.16667 0.66667,0.66667 l 0.16666,0.5 h -0.66666 q -0.66667,0 -0.66667,-0.66667"
       id="path3540" />
    <path
       style="fill:#ff0000;fill-opacity:0.2;stroke-width:1.33333"
       d="m 162.5,147.5 q -0.16666,-0.5 0.18751,-0.85416 l 0.35416,-0.35417 -0.0625,-0.10413 -0.0625,-0.10414 0.12494,0.20834 q 0.12513,0.20826 0.2918,0.37493 l 0.16666,0.16667 -0.25,-0.25 -0.25,-0.25 0.33334,0.33333 Q 163.66667,147 164,147.33334 l 0.33334,0.33333 -0.375,0.375 -0.375,0.375 0.0833,0.0833 0.0833,0.0833 -0.16666,-0.16667 q -0.16667,-0.16667 -0.41667,-0.25 l -0.25,-0.0833 0.375,0.12493 0.375,0.12493 -0.5,-0.16666 -0.5,-0.16654 -0.16667,-0.5 m 1.91667,0.25 -0.0833,-0.0833 -0.25,-0.25 -0.25,-0.25 0.16666,0.16667 q 0.16667,0.16666 0.33334,0.33333 l 0.16666,0.16667 -0.0833,-0.0833"
       id="path3538" />
    <path
       style="fill:#ff0000;fill-opacity:0.0352941;stroke-width:1.33333"
       d="m 161.16667,144.83334 q -0.16667,-0.5 0.18751,-0.85416 l 0.35416,-0.35418 -0.0625,-0.10413 -0.0625,-0.10413 0.12493,0.20833 Q 161.83334,143.83334 162,144 l 0.16667,0.16667 -0.25,-0.25 -0.25,-0.25 L 162,144 q 0.33334,0.33334 0.5,0.83334 l 0.16667,0.5 H 162 q -0.66666,0 -0.83333,-0.5"
       id="path3536" />
    <path
       style="fill:#ff0000;fill-opacity:0.027451;stroke-width:1.33333"
       d="m 159.83334,142.16667 q -0.16667,-0.5 0.1875,-0.85416 l 0.35416,-0.35417 -0.0625,-0.10414 -0.0625,-0.10413 0.12493,0.20833 q 0.12513,0.20827 0.2918,0.37494 l 0.16667,0.16666 -0.25,-0.25 -0.25,-0.25 0.33333,0.33334 q 0.33333,0.33333 0.5,0.83333 l 0.16667,0.5 h -0.66667 q -0.66667,0 -0.83333,-0.5"
       id="path3534" />
    <path
       style="fill:#ff0000;fill-opacity:0.701961;stroke-width:1.33333"
       d="m 158.66667,139.33334 v -0.66667 H 159.33334 160 V 139.33334 140 h -0.66666 q -0.66667,0 -0.66667,-0.66666"
       id="path3532" />
    <path
       style="fill:#ff0000;fill-opacity:0.105882;stroke-width:1.33333"
       d="m 158.5,138.16667 q -0.16666,-0.5 0.16667,-0.83333 L 159,137 l 0.33334,0.33334 q 0.33333,0.33333 0.5,0.83333 l 0.16666,0.5 h -0.66666 -0.66667 l -0.16667,-0.5 M 159.25,137.25 159,137 158.9167,136.9167 158.8334,136.8334 159,137 q 0.16667,0.16667 0.33334,0.33334 L 159.5,137.5 l -0.25,-0.25"
       id="path3530" />
    <path
       style="fill:#ff0000;fill-opacity:0.0392157;stroke-width:1.33333"
       d="M 155.83334,128.5 156,128 h 0.66667 0.66667 l -0.16667,0.5 q -0.16667,0.5 -0.5,0.83334 l -0.33333,0.33333 0.25,-0.25 0.25,-0.25 -0.16667,0.16667 q -0.16667,0.16666 -0.25,0.33333 l -0.0833,0.16667 0.0416,-0.0833 0.0417,-0.0833 -0.375,-0.33333 Q 155.66667,129 155.83334,128.5"
       id="path3528" />
    <path
       style="fill:#ff0000;fill-opacity:0.298039;stroke-width:1.33333"
       d="m 155.83334,127.5 -0.16667,-0.5 0.12493,0.375 0.12494,0.375 -0.0833,-0.25 q -0.0833,-0.25 -0.25,-0.41666 l -0.16666,-0.16667 0.0833,0.0833 0.0833,0.0833 0.39584,-0.39584 0.39583,-0.39583 -0.0625,-0.10417 -0.0625,-0.10418 0.12494,0.20834 q 0.12526,0.20834 0.29193,0.37501 l 0.16667,0.16667 -0.25,-0.25 -0.25,-0.25 0.33333,0.33333 Q 157,127 157.16667,127.5 l 0.16667,0.5 H 156.66667 156 l -0.16666,-0.5"
       id="path3526" />
    <path
       style="fill:#ff0000;fill-opacity:0.996078;stroke-width:1.33333"
       d="m 154.66667,127.33334 v -0.66667 l 0.5,0.16667 q 0.5,0.16666 0.66667,0.66666 L 156,128 h -0.66666 q -0.66667,0 -0.66667,-0.66666"
       id="path3524" />
    <path
       style="fill:#ff0000;fill-opacity:0.984314;stroke-width:1.33333"
       d="m 154.66667,126 v -0.66666 H 155.33334 156 l 0.16667,0.5 0.16667,0.5 -0.12494,-0.375 -0.12493,-0.375 0.0833,0.25 q 0.0833,0.25 0.20834,0.45833 l 0.12493,0.20833 -0.0625,-0.10417 -0.0625,-0.10417 -0.39582,0.39583 -0.39584,0.39583 0.0833,0.0833 0.0833,0.0833 -0.16666,-0.16667 q -0.16667,-0.16666 -0.41667,-0.25 l -0.25,-0.0833 0.375,0.125 0.375,0.12501 -0.5,-0.16666 -0.5,-0.16667 V 126"
       id="path3522" />
    <path
       style="fill:#ff0000;fill-opacity:0.2;stroke-width:1.33333"
       d="m 154.5,124.83334 q -0.16666,-0.5 0.18751,-0.85417 l 0.35416,-0.35417 -0.0625,-0.10417 -0.0625,-0.10417 0.12494,0.20833 q 0.12513,0.20835 0.2918,0.37501 l 0.16666,0.16667 -0.25,-0.25 -0.25,-0.25 0.33334,0.33333 q 0.33333,0.33334 0.5,0.83334 l 0.16666,0.5 h -0.66666 -0.66667 l -0.16667,-0.5"
       id="path3520" />
    <path
       style="fill:#ff0000;fill-opacity:0.027451;stroke-width:1.33333"
       d="m 153.16667,117.83334 0.16667,-0.5 H 154 h 0.66667 l -0.16667,0.5 q -0.16666,0.5 -0.5,0.83333 L 153.66667,119 l 0.25,-0.25 0.25,-0.25 L 154,118.66667 q -0.16666,0.16667 -0.25,0.33333 l -0.0833,0.16667 0.0416,-0.0833 0.0417,-0.0833 -0.375,-0.33333 q -0.375,-0.33333 -0.20833,-0.83333"
       id="path3518" />
    <path
       style="fill:#ff0000;fill-opacity:0.192157;stroke-width:1.33333"
       d="M 153.33334,116.66667 V 116 H 154 h 0.66667 v 0.66667 0.66667 H 154 153.33334 v -0.66667"
       id="path3516" />
    <path
       style="fill:#ff0000;fill-opacity:0.0156863;stroke-width:1.33333"
       d="M 153.16667,115.5 153,115 l 0.12494,0.375 0.12493,0.375 -0.0833,-0.25 q -0.0833,-0.25 -0.25,-0.41666 l -0.16667,-0.16667 0.0833,0.0833 0.0833,0.0833 0.39584,-0.39584 0.39582,-0.39583 -0.0625,-0.10417 -0.0625,-0.10418 0.12493,0.20834 Q 153.83334,114.5 154,114.66667 l 0.16667,0.16667 -0.25,-0.25 -0.25,-0.25 L 154,114.66667 Q 154.33334,115 154.5,115.5 l 0.16667,0.5 H 154 153.33334 l -0.16667,-0.5"
       id="path3514" />
    <path
       style="fill:#ff0000;fill-opacity:0.929412;stroke-width:1.33333"
       d="m 152,115.33334 v -0.66667 l 0.5,0.16667 Q 153,115 153.16667,115.5 l 0.16667,0.5 h -0.66667 Q 152,116 152,115.33334"
       id="path3512" />
    <path
       style="fill:#ff0000;fill-opacity:0.945098;stroke-width:1.33333"
       d="m 152,114 v -0.66666 h 0.66667 0.66667 l 0.16666,0.5 0.16667,0.5 -0.12493,-0.375 -0.12494,-0.375 0.0833,0.25 q 0.0833,0.25 0.20833,0.45833 l 0.12493,0.20833 -0.0625,-0.10417 -0.0625,-0.10417 -0.39583,0.39583 -0.39584,0.39583 0.0833,0.0833 0.0833,0.0833 -0.16667,-0.16667 q -0.16667,-0.16666 -0.41667,-0.25 l -0.25,-0.0833 0.375,0.125 L 153,115 152.5,114.83334 152,114.66667 V 114"
       id="path3510" />
    <path
       style="fill:#ff0000;fill-opacity:0.164706;stroke-width:1.33333"
       d="m 151.83334,112.83334 q -0.16667,-0.5 0.1875,-0.85417 l 0.35416,-0.35417 -0.0625,-0.10417 -0.0625,-0.10417 0.12493,0.20833 Q 152.5,111.83334 152.66667,112 l 0.16667,0.16667 -0.25,-0.25 -0.25,-0.25 0.33333,0.33333 q 0.33333,0.33334 0.5,0.83334 l 0.16667,0.5 H 152.66667 152 l -0.16666,-0.5"
       id="path3508" />
    <path
       style="fill:#ff0000;fill-opacity:0.866667;stroke-width:1.33333"
       d="m 133.66667,110 q 0,-0.33333 0.5,-0.5 l 0.5,-0.16666 V 110 q 0,0.66667 -0.5,0.5 -0.5,-0.16666 -0.5,-0.5"
       id="path3506" />
    <path
       style="fill:#ff0000;fill-opacity:0.027451;stroke-width:1.33333"
       d="m 132.33334,110 q 0,-0.33333 0.33333,-0.66666 L 133,109 l -0.25,0.25 -0.25,0.25 0.16667,-0.16666 q 0.16667,-0.16667 0.29167,-0.375 l 0.125,-0.20834 -0.0625,0.10418 -0.0625,0.10417 0.41667,0.375 0.41666,0.375 0.0625,-0.0625 0.0625,-0.0625 -0.12493,0.125 q -0.12515,0.12498 -0.12515,0.29164 v 0.16667 -0.25 -0.25 0.33333 0.33334 -0.25 -0.25 V 110 q 0,0.16667 0.12493,0.29167 l 0.12494,0.125 -0.0625,-0.0625 -0.0625,-0.0625 -0.41667,0.375 -0.41666,0.375 0.0625,0.10418 0.0625,0.10417 -0.125,-0.20833 q -0.12478,-0.20836 -0.29145,-0.37503 L 132.5,110.5 l 0.25,0.25 0.25,0.25 -0.33333,-0.33333 Q 132.33334,110.33334 132.33334,110"
       id="path3504" />
    <path
       style="fill:#ff0000;fill-opacity:0.968627;stroke-width:1.33333"
       d="m 133.16667,108.5 0.16667,-0.5 H 134 h 0.66667 v 0.66667 0.66667 l -0.5,0.16666 -0.5,0.16667 0.375,-0.125 0.375,-0.125 -0.25,0.0833 q -0.25,0.0833 -0.375,0.20834 l -0.12493,0.125 0.0625,-0.0625 0.0625,-0.0625 -0.4168,-0.37501 -0.41666,-0.375 -0.0625,0.10416 -0.0625,0.10417 0.125,-0.20833 q 0.125,-0.20834 0.20833,-0.45834 l 0.0833,-0.25 -0.125,0.375 L 133,109 l 0.16667,-0.5"
       id="path3502" />
    <path
       style="fill:#ff0000;fill-opacity:0.32549;stroke-width:1.33333"
       d="m 133.33334,107.33334 v -0.66667 H 134 134.66667 V 107.33334 108 H 134 133.33334 v -0.66666"
       id="path3500" />
    <path
       style="fill:#ff0000;fill-opacity:0.0627451;stroke-width:1.33333"
       d="m 133.5,106.16667 q 0.16667,-0.5 0.5,-0.83333 L 134.33334,105 l -0.25,0.25 -0.25,0.25 L 134,105.33334 q 0.16667,-0.16667 0.29167,-0.375 l 0.12493,-0.20834 -0.0625,0.10418 -0.0625,0.10417 0.35417,0.35417 q 0.35429,0.35415 0.18763,0.85415 l -0.16667,0.5 H 134 133.33334 l 0.16666,-0.5"
       id="path3498" />
    <path
       style="fill:#ff0000;fill-opacity:0.878431;stroke-width:1.33333"
       d="m 149.33334,102 v -0.66666 H 150 150.66667 V 102 102.66667 H 150 q -0.66666,0 -0.66666,-0.66667"
       id="path3496" />
    <path
       style="fill:#ff0000;fill-opacity:0.976471;stroke-width:1.33333"
       d="M 149.33334,100.66667 V 100 H 150 h 0.66667 v 0.66667 0.66667 H 150 149.33334 v -0.66667"
       id="path3494" />
    <path
       style="fill:#ff0000;fill-opacity:0.980392;stroke-width:1.33333"
       d="M 149.33334,99.333335 V 98.666669 H 150 150.66667 V 99.333335 100 H 150 149.33334 v -0.666665"
       id="path3492" />
    <path
       style="fill:#ff0000;fill-opacity:0.996078;stroke-width:1.33333"
       d="M 149.33334,98.000002 V 97.333335 H 150 h 0.66667 v 0.666667 0.666667 H 150 149.33334 v -0.666667"
       id="path3490" />
    <path
       style="fill:#ff0000;fill-opacity:0.945098;stroke-width:1.33333"
       d="M 149.33334,96.666669 V 96.000002 H 150 h 0.66667 v 0.666667 0.666666 H 150 149.33334 v -0.666666"
       id="path3488" />
    <path
       style="fill:#ff0000;fill-opacity:0.984314;stroke-width:1.33333"
       d="M 149.33334,95.333335 V 94.666669 H 150 h 0.66667 v 0.666666 0.666667 H 150 149.33334 v -0.666667"
       id="path3486" />
    <path
       style="fill:#ff0000;fill-opacity:0.996078;stroke-width:1.33333"
       d="m 149.33334,94.000002 q 0,-0.666667 0.66666,-0.666667 h 0.66667 v 0.666667 0.666667 H 150 149.33334 v -0.666667"
       id="path3484" />
    <path
       style="fill:#ff0000;fill-opacity:0.984314;stroke-width:1.33333"
       d="M 149.33334,91.333335 V 90.666668 H 150 h 0.66667 v 0.666667 0.666667 H 150 q -0.66666,0 -0.66666,-0.666667"
       id="path3482" />
    <path
       style="fill:#ff0000;fill-opacity:0.988235;stroke-width:1.33333"
       d="M 149.33334,88.666668 V 88.000002 H 150 h 0.66667 v 0.666666 q 0,0.666667 0,1.333334 v 0.666666 H 150 149.33334 v -0.666666 q 0,-0.666667 0,-1.333334"
       id="path3480" />
    <path
       style="fill:#ff0000;fill-opacity:0.956863;stroke-width:1.33333"
       d="M 149.33334,87.333335 V 86.666668 H 150 h 0.66667 v 0.666667 0.666667 H 150 149.33334 v -0.666667"
       id="path3478" />
    <path
       style="fill:#ff0000;fill-opacity:0.988235;stroke-width:1.33333"
       d="M 149.33334,86.000002 V 85.333335 H 150 h 0.66667 v 0.666667 0.666666 H 150 149.33334 v -0.666666"
       id="path3476" />
    <path
       style="fill:#ff0000;fill-opacity:0.972549;stroke-width:1.33333"
       d="m 149.33334,84.666668 v -0.666666 l 0.5,0.166666 q 0.5,0.166667 0.66666,0.666667 l 0.16667,0.5 H 150 149.33334 v -0.666667"
       id="path3474" />
    <path
       style="fill:#ff0000;fill-opacity:1;stroke-width:1.33333"
       d="m 129.33334,83.333335 q 0.33333,-0.333333 0.83333,-0.5 0.5,-0.166667 1.16667,-0.166667 0.66666,0 1.33333,0 0.66667,0 1.33333,0 0.66667,0 1.33334,0 0.66666,0 1.33333,0 0.66667,0 1.33333,0 0.66667,0 1.33334,0 0.66666,0 1.33333,0 0.66667,0 1.33333,0 0.66667,0 1.33334,0 0.66666,0 1.33333,0 0.66667,0 1.16667,0.166667 0.5,0.166667 0.83333,0.5 0.33333,0.333333 0.83333,0.5 0.5,0.166667 1.16667,0.166667 h 0.66667 v 0.666666 0.666667 0.666667 0.666666 0.666667 0.666667 0.666666 q 0,0.666667 0,1.333334 v 0.666666 0.666667 q 0,0.666667 0.66666,0.666667 h 0.66667 v 0.666666 0.666667 H 150 q -0.66666,0 -0.66666,0.666667 v 0.666667 0.666666 0.666667 0.666667 0.666666 0.666667 0.666667 0.666666 V 100 100.66667 101.33334 102 q 0,0.66667 0.66666,0.66667 h 0.66667 v 0.66667 q 0,0.66666 0,1.33333 0,0.66667 0.16667,1.16667 0.16666,0.5 0.5,0.83333 0.33333,0.33333 0.5,0.83333 Q 152,108 152,108.66667 q 0,0.66667 0,1.33333 0,0.66667 0.16667,1.16667 l 0.16667,0.5 -0.12494,-0.375 -0.12493,-0.375 0.0833,0.25 q 0.0833,0.25 0.20834,0.45833 l 0.12493,0.20834 -0.0625,-0.10418 -0.0625,-0.10417 -0.35416,0.35417 q -0.35417,0.35418 -0.1875,0.85418 l 0.16666,0.5 V 114 v 0.66667 0.66667 Q 152,116 152.66667,116 h 0.66667 v 0.66667 0.66667 l -0.16667,0.5 q -0.16667,0.5 0.20833,0.83333 L 153.75,119 l 0.0416,-0.0833 0.0416,-0.0833 -0.0833,0.16666 q -0.0832,0.16667 -0.0832,0.33334 v 0.1666 -0.25 -0.25 0.33334 q 0,0.33333 0.33333,0.66666 0.33334,0.33334 0.5,0.83334 0.16667,0.5 0.16667,1.16666 0,0.66667 0.16667,1.16667 l 0.16666,0.5 -0.12493,-0.375 -0.12493,-0.375 0.0833,0.25 q 0.0833,0.25 0.20833,0.45833 l 0.12494,0.20834 -0.0625,-0.10418 -0.0625,-0.10417 -0.35416,0.35417 q -0.35417,0.35418 -0.18751,0.85418 l 0.16667,0.5 V 126 v 0.66667 0.66667 q 0,0.66666 0.66667,0.66666 H 156 l -0.16666,0.5 q -0.16667,0.5 0.20833,0.83334 l 0.375,0.33333 0.0416,-0.0833 0.0416,-0.0833 -0.0833,0.16667 q -0.0832,0.16667 -0.0832,0.33333 v 0.16667 -0.25 -0.25 V 130 q 0,0.33334 0.33333,0.66667 0.33333,0.33333 0.5,0.83333 0.16667,0.5 0.16667,1.16667 0,0.66667 0,1.33333 0,0.66667 0.16666,1.16667 0.16667,0.5 0.5,0.83333 0.33334,0.33334 0.66667,0.66667 L 159,137 l -0.33333,0.33334 q -0.33333,0.33333 -0.16667,0.83333 l 0.16667,0.5 v 0.66667 q 0,0.66666 0.66667,0.66666 H 160 l 0.16667,0.5 0.16667,0.5 -0.12494,-0.375 -0.12493,-0.375 0.0833,0.25 q 0.0833,0.25 0.20834,0.45834 l 0.12493,0.20833 -0.0625,-0.10413 -0.0625,-0.10414 -0.35416,0.35418 q -0.35417,0.35409 -0.1875,0.85409 0.16666,0.5 0.83333,0.5 h 0.66667 l 0.16666,0.5 0.16667,0.5 -0.12493,-0.375 -0.12494,-0.375 0.0833,0.25 q 0.0833,0.25 0.20833,0.45833 l 0.12493,0.20834 -0.0625,-0.10414 -0.0625,-0.10413 -0.35416,0.35417 q -0.35418,0.3541 -0.18751,0.8541 0.16667,0.5 0.83333,0.5 h 0.66667 l 0.16667,0.5 0.16666,0.5 -0.12493,-0.375 -0.12493,-0.375 0.0833,0.25 q 0.0833,0.25 0.20833,0.45833 l 0.12494,0.20833 -0.0625,-0.10413 -0.0625,-0.10413 -0.35416,0.35417 Q 162.33334,147 162.5,147.5 l 0.16667,0.5 v 0.66667 q 0,0.66667 0.66667,0.66667 H 164 V 150 q 0,0.66667 0.66667,0.66667 h 0.66667 v 0.66667 q 0,0.66666 0.5,0.83333 0.5,0.16667 0.66666,0.66667 l 0.16667,0.5 V 154 q 0,0.66667 0.5,0.83334 0.5,0.16666 0.66667,0.66666 0.16666,0.5 0.83333,0.5 h 0.66667 v 0.66667 q 0,0.66667 0.66666,0.66667 h 0.66667 V 158 q 0,0.66667 0.66667,0.66667 H 172 v 0.66667 Q 172,160 172.66667,160 h 0.66667 l 0.5,0.16667 q 0.5,0.16667 0.66666,0.66667 0.16667,0.5 0.66667,0.66666 0.5,0.16667 0.66667,0.66667 0.16666,0.5 0.83333,0.5 h 0.66667 v 0.66667 Q 177.33334,164 178,164 h 0.66667 v 0.66667 q 0,0.66667 0.66667,0.66667 H 180 l 0.5,0.16666 q 0.5,0.16667 0.66667,0.66667 0.16667,0.5 0.66667,0.66667 0.5,0.16666 0.66666,0.66666 0.16667,0.5 0.66667,0.66667 0.5,0.16667 0.66667,0.66667 0.16666,0.5 0.83333,0.5 h 0.66667 V 170 q 0,0.66667 0.66666,0.66667 h 0.66667 v 0.66667 q 0,0.66666 0.66667,0.66666 H 188 v 0.66667 q 0,0.66667 0.66667,0.66667 h 0.66667 V 174 q 0,0.66667 0.66666,0.66667 h 0.66667 l 0.16667,0.5 q 0.16666,0.5 0.5,0.83333 0.33333,0.33334 0.66666,0.66667 0.33334,0.33333 0.66667,0.66667 Q 193,177.66667 193.33334,178 193.66667,178.33334 194,178.66667 194.33334,179 194.66667,179.33334 195,179.66667 195.33334,180 195.66667,180.33334 196,180.66667 196.33334,181 196.66667,181.33334 197,181.66667 197.33334,182 197.66667,182.33334 198,182.66667 198.33334,183 198.66667,183.33334 199,183.66667 199.33334,184 199.66667,184.33334 200,184.66667 200.33334,185 200.66667,185.33334 201,185.66667 201.33334,186 l 0.33333,0.33334 -0.25,-0.25 -0.25,-0.25 0.16667,0.16666 q 0.16666,0.16667 0.375,0.29167 l 0.20833,0.12493 -0.10413,-0.0625 -0.10414,-0.0625 -0.35417,0.35416 Q 201,187 201.16667,187.5 l 0.16667,0.5 v 0.66667 q 0,0.66667 0.5,0.83333 0.5,0.16667 0.66666,0.66667 l 0.16667,0.5 V 191.33334 192 192.66667 193.33334 194 q 0,0.66667 0,1.33334 0,0.66666 0.66667,0.66666 H 204 v 0.66667 0.66667 h -0.66666 q -0.66667,0 -0.66667,0.66666 v 0.66667 0.66667 V 200 L 202.5,200.5 q -0.16666,0.5 0.16667,0.83334 L 203,201.66667 202.66667,202 q -0.33333,0.33334 -0.66667,0.66667 -0.33333,0.33333 -0.66666,0.66667 -0.33334,0.33333 -0.83334,0.5 -0.5,0.16666 -1,0.33333 -0.5,0.16667 -0.83333,0.5 -0.33333,0.33333 -0.83333,0.5 -0.5,0.16667 -1,0.33333 -0.5,0.16667 -0.83334,0.5 -0.33333,0.33334 -0.83333,0.5 -0.5,0.16667 -1.16667,0.16667 h -0.66666 V 206 q 0,-0.66666 -0.5,-0.83333 Q 192.33334,205 192.16667,204.5 L 192,204 l 0.16667,-0.5 q 0.16667,-0.5 -0.20833,-0.83333 l -0.375,-0.33333 -0.0416,0.0833 -0.0416,0.0833 0.0833,-0.16666 q 0.0833,-0.16667 0.0833,-0.33334 v -0.16666 0.25 0.25 V 202 v -0.33333 0.25 0.25 V 202 q 0,-0.16666 -0.0833,-0.33333 l -0.0833,-0.16667 0.0416,0.0833 0.0416,0.0833 0.375,-0.33333 Q 192.33334,201 192.16667,200.5 L 192,200 v -0.66666 q 0,-0.66667 -0.66666,-0.66667 h -0.66667 l -0.16667,-0.5 -0.16666,-0.5 0.12493,0.375 0.12493,0.375 -0.0833,-0.25 q -0.0833,-0.25 -0.20833,-0.45833 L 190.1666,197.5 l 0.0625,0.10414 0.0625,0.10413 0.35416,-0.35417 Q 191,197 190.83334,196.5 l -0.16667,-0.5 v -0.66666 q 0,-0.66667 -0.5,-0.83334 -0.5,-0.16666 -0.66667,-0.66666 l -0.16666,-0.5 v -0.66667 q 0,-0.66667 -0.5,-0.83333 -0.5,-0.16667 -0.66667,-0.66667 L 188,190.66667 V 190 q 0,-0.66666 -0.66666,-0.66666 h -0.66667 v -0.66667 Q 186.66667,188 186,188 h -0.66666 v -0.66666 q 0,-0.66667 -0.66667,-0.66667 H 184 V 186 q 0,-0.66666 -0.66666,-0.66666 h -0.66667 v -0.66667 q 0,-0.66667 -0.5,-0.83333 -0.5,-0.16667 -0.66667,-0.66667 -0.16666,-0.5 -0.83333,-0.5 H 180 h -0.66666 -0.66667 l -0.16667,-0.5 q -0.16666,-0.5 -0.5,-0.83333 Q 177.66667,181 177.33334,180.66667 177,180.33334 176.5,180.16667 L 176,180 v -0.66666 q 0,-0.66667 -0.66666,-0.66667 h -0.66667 V 178 q 0,-0.66666 -0.66667,-0.66666 h -0.66666 v -0.66667 Q 173.33334,176 172.66667,176 H 172 v -0.66666 q 0,-0.66667 -0.66666,-0.66667 h -0.66667 V 174 q 0,-0.66666 -0.5,-0.83333 Q 169.66667,173 169.5,172.5 169.33334,172 168.66667,172 H 168 l -0.16666,-0.5 q -0.16667,-0.5 -0.5,-0.83333 Q 167,170.33334 166.66667,170 166.33334,169.66667 166,169.33334 165.66667,169 165.33334,168.66667 165,168.33334 164.66667,168 164.33334,167.66667 164,167.33334 163.66667,167 163.33334,166.66667 163,166.33334 162.66667,166 q -0.33333,-0.33333 -0.83333,-0.5 -0.5,-0.16666 -1,-0.33333 Q 160.33334,165 160,164.66667 159.66667,164.33334 159.33334,164 159,163.66667 158.66667,163.33334 158.33334,163 158,162.66667 157.66667,162.33334 157.33334,162 157,161.66667 156.5,161.5 156,161.33334 155.5,161.16667 155,161 154.66667,160.66667 154.33334,160.33334 154,160 153.66667,159.66667 153.33334,159.33334 153,159 152.66667,158.66667 152.33334,158.33334 152,158 151.66667,157.66667 151.33334,157.33334 151,157 150.66667,156.66667 150.33334,156.33334 150,156 149.66667,155.66667 149.33334,155.33334 149,155 148.66667,154.66667 148.33334,154.33334 148,154 147.66667,153.66667 147.33334,153.33334 147,153 146.66667,152.66667 146.33334,152.33334 146,152 145.66667,151.66667 145.33334,151.33334 145,151 144.66667,150.66667 144.33334,150.33334 144,150 143.66667,149.66667 143.33334,149.33334 143,149 142.66667,148.66667 142.33334,148.33334 142,148 q -0.33333,-0.33333 -0.5,-0.83333 -0.16666,-0.5 -0.33333,-1 -0.16667,-0.5 -0.5,-0.83333 -0.33333,-0.33334 -0.5,-0.83334 -0.16667,-0.5 -0.33333,-1 -0.16667,-0.5 -0.5,-0.83333 -0.33334,-0.33333 -0.5,-0.83333 -0.16667,-0.5 -0.33334,-1 -0.16666,-0.5 -0.5,-0.83334 -0.33333,-0.33333 -0.5,-0.83333 -0.16666,-0.5 -0.16666,-1.16667 0,-0.66666 -0.16667,-1.16666 -0.16667,-0.5 -0.5,-0.83334 -0.33333,-0.33333 -0.5,-0.83333 Q 136,134.66667 136,134 q 0,-0.66666 -0.16666,-1.16666 -0.16667,-0.5 -0.5,-0.83334 -0.33334,-0.33333 -0.5,-0.83333 -0.16667,-0.5 -0.16667,-1.16667 0,-0.66666 -0.16667,-1.16666 -0.16666,-0.5 -0.5,-0.83334 -0.33333,-0.33333 -0.5,-0.83333 -0.16666,-0.5 -0.16666,-1.16667 0,-0.66666 0,-1.33333 0,-0.66667 -0.16667,-1.16667 -0.16667,-0.5 -0.5,-0.83333 -0.33333,-0.33333 -0.5,-0.83333 -0.16667,-0.5 -0.16667,-1.16667 0,-0.66667 0,-1.33333 0,-0.66667 0,-1.33334 0,-0.66666 0,-1.33333 0,-0.66667 0,-1.33333 0,-0.66667 0.16667,-1.16667 0.16667,-0.5 0.5,-0.83333 Q 133,113 133.16667,112.5 q 0.16667,-0.5 0,-1 L 133,111 l 0.125,0.375 0.125,0.375 -0.0833,-0.25 q -0.0833,-0.25 -0.20833,-0.45833 l -0.125,-0.20833 0.0625,0.10417 0.0625,0.10417 0.41667,-0.375 0.41667,-0.375 -0.0625,-0.0625 -0.0625,-0.0625 0.12493,0.125 q 0.12494,0.125 0.375,0.20833 l 0.25,0.0833 -0.375,-0.125 -0.37485,-0.12502 0.5,0.16666 q 0.5,0.16667 0.5,-0.5 V 109.33334 108.66667 108 v -0.66666 -0.66667 l 0.16667,-0.5 q 0.16666,-0.5 -0.1875,-0.85417 l -0.35417,-0.35416 -0.0625,0.10417 -0.0625,0.10417 0.12494,-0.20833 Q 134.41667,104.75 134.5,104.5 l 0.0833,-0.25 -0.12494,0.375 -0.12493,0.375 0.16667,-0.5 q 0.16653,-0.5 -1.4e-4,-1 -0.16666,-0.5 -0.5,-0.83333 -0.33333,-0.33333 -0.5,-0.83333 -0.16666,-0.5 -0.16666,-1.16667 0,-0.66667 -0.16667,-1.166668 -0.16667,-0.5 -0.5,-0.833333 -0.33333,-0.333334 -0.5,-0.833334 Q 132,97.333335 132,96.666669 q 0,-0.666667 -0.16666,-1.166667 -0.16667,-0.5 -0.5,-0.833333 -0.33334,-0.333334 -0.5,-0.833334 -0.16667,-0.5 -0.16667,-1.166667 0,-0.666666 0,-1.333333 0,-0.666667 -0.16667,-1.166667 -0.16666,-0.5 -0.5,-0.833333 -0.33333,-0.333333 -0.5,-0.833333 -0.16666,-0.5 -0.33333,-1 -0.16667,-0.5 -0.5,-0.833334 -0.33333,-0.333333 -0.5,-0.833333 -0.16667,-0.5 0,-1 0.16667,-0.5 0.5,-0.833333 Q 129,83.666668 129.33334,83.333335 M 202.75,201.91667 l 0.25,-0.25 0.0833,-0.0833 0.0833,-0.0833 -0.1666,0.1666 q -0.16666,0.16667 -0.33333,0.33333 l -0.16667,0.16667 0.25,-0.25 M 159.08334,137.08334 159,137 l -0.25,-0.25 -0.25,-0.25 0.16667,0.16667 Q 158.83334,136.83334 159,137 l 0.16667,0.16667 -0.0833,-0.0833"
       id="path3472" />
    <path
       style="fill:#ff0000;fill-opacity:1;stroke-width:1.33333"
       d="m 169.33334,8.6666668 q 0.33333,-0.3333333 0.83333,-0.5 0.5,-0.1666666 1.16667,-0.1666666 0.66666,0 1.33333,0 0.66667,0 1.33333,0 0.66667,0 1.33334,0 0.66666,0 1.33333,0 0.66667,0 1.33333,0 0.66667,0 1.16667,0.1666666 0.5,0.1666667 0.83333,0.5 0.33334,0.3333334 0.83334,0.5 0.5,0.1666667 1.16666,0.1666667 0.66667,0 1.16667,0.1666667 Q 183.66667,9.6666669 184,10 q 0.33334,0.333334 0.83334,0.5 0.5,0.166667 1.16666,0.166667 0.66667,0 1.16667,0.166667 0.5,0.166666 0.83333,0.5 0.33334,0.333333 0.66667,0.666666 0.33333,0.333334 0.66667,0.666667 0.33333,0.333333 0.83333,0.5 0.5,0.166667 1,0.333333 0.5,0.166667 0.83333,0.5 0.33334,0.333334 0.66667,0.666667 Q 193,15 193.33334,15.333334 193.66667,15.666667 194,16 q 0.33334,0.333334 0.66667,0.666667 Q 195,17 195.33334,17.333334 195.66667,17.666667 196,18 q 0.33334,0.333334 0.66667,0.666667 Q 197,19 197.33334,19.333334 197.66667,19.666667 198,20 q 0.33334,0.333334 0.66667,0.666667 Q 199,21 199.33334,21.333334 q 0.33333,0.333333 0.5,0.833333 0.16666,0.5 0.33333,1 0.16667,0.5 0.5,0.833333 0.33333,0.333334 0.5,0.833334 0.16667,0.5 0.33333,1 0.16667,0.5 0.5,0.833333 0.33334,0.333334 0.5,0.833334 0.16667,0.5 0.33334,1 0.16666,0.5 0.5,0.833333 0.33333,0.333333 0.5,0.833333 0.16666,0.5 0.16666,1.166667 0,0.666667 0,1.333333 0,0.666667 0.16667,1.166667 0.16667,0.5 0.5,0.833333 0.33333,0.333334 0.5,0.833334 0.16667,0.5 0,1 -0.16667,0.5 -0.5,0.833333 -0.33333,0.333333 -0.66667,0.666667 -0.33333,0.333333 -0.83333,0.5 -0.5,0.166666 -1.16667,0.166666 -0.66666,0 -1.33333,0 -0.66667,0 -1.33333,0 -0.66667,0 -1.33334,0 -0.66666,0 -1.33333,0 -0.66667,0 -1.16667,0.166667 -0.5,0.166667 -0.83333,0.5 -0.33333,0.333333 -0.83333,0.5 -0.5,0.166667 -1.16667,0.166667 -0.66667,0 -1.33333,0 -0.66667,0 -1.33334,0 -0.66666,0 -1.33333,0 -0.66667,0 -1.33333,0 -0.66667,0 -1.33334,0 -0.66666,0 -1.33333,0 -0.66667,0 -1.33333,0 -0.66667,0 -1.16667,-0.166667 -0.5,-0.166667 -0.83333,-0.5 -0.33334,-0.333333 -0.83334,-0.5 -0.5,-0.166667 -1.16666,-0.166667 -0.66667,0 -1.33334,0 -0.66666,0 -1.33333,0 -0.66667,0 -1.33333,0 -0.66667,0 -1.16667,0.166667 -0.5,0.166667 -0.83333,0.5 -0.33334,0.333333 -0.83334,0.5 -0.5,0.166667 -1.16666,0.166667 -0.66667,0 -1.33334,0 -0.66666,0 -1.33333,0 -0.66667,0 -1.33333,0 -0.66667,0 -1.33334,0 -0.66666,0 -1.33333,0 -0.66667,0 -1.16667,0.166666 -0.5,0.166667 -0.83333,0.5 -0.33333,0.333334 -0.83333,0.5 -0.5,0.166667 -1.16667,0.166667 -0.66667,0 -1.16667,0.166667 -0.5,0.166666 -0.83333,0.5 -0.33333,0.333333 -0.83333,0.5 -0.5,0.166667 -1,0.333333 -0.5,0.166667 -0.83334,0.5 -0.33333,0.333334 -0.83333,0.5 -0.5,0.166667 -1,0.333334 -0.5,0.166666 -0.83333,0.5 -0.33334,0.333333 -0.83334,0.5 -0.5,0.166666 -1.16666,0.166666 -0.66667,0 -1.33334,0 -0.66666,0 -1.16666,-0.166666 -0.5,-0.166667 -0.66667,-0.666667 Q 148,44.000001 148,43.333334 q 0,-0.666666 0,-1.333333 0,-0.666667 -0.16666,-1.166667 -0.16667,-0.5 -0.5,-0.833333 -0.33334,-0.333334 -0.5,-0.833334 -0.16667,-0.5 -0.16667,-1.166666 0,-0.666667 0,-1.333334 0,-0.666666 0,-1.333333 0,-0.666667 0,-1.333333 0,-0.666667 0.16667,-1.166667 0.16666,-0.5 0.5,-0.833333 0.33333,-0.333334 0.5,-0.833334 0.16666,-0.5 0.16666,-1.166666 0,-0.666667 0.16667,-1.166667 0.16667,-0.5 0.5,-0.833333 0.33333,-0.333334 0.5,-0.833334 0.16667,-0.5 0.33333,-1 0.16667,-0.5 0.5,-0.833333 Q 150.33334,25 150.66667,24.666667 151,24.333334 151.33334,24 q 0.33333,-0.333333 0.5,-0.833333 0.16666,-0.5 0.33333,-1 0.16667,-0.5 0.5,-0.833333 Q 153,21 153.33334,20.666667 153.66667,20.333334 154,20 154.33334,19.666667 154.66667,19.333334 155,19 155.33334,18.666667 155.66667,18.333334 156,18 156.33334,17.666667 156.66667,17.333334 157,17 157.33334,16.666667 157.66667,16.333334 158,16 158.33334,15.666667 158.66667,15.333334 159,15 159.33334,14.666667 159.66667,14.333334 160,14 160.33334,13.666667 160.66667,13.333334 161,13 161.33334,12.666667 161.66667,12.333334 162,12 162.33334,11.666667 162.66667,11.333334 163,11 163.5,10.833334 164,10.666667 164.5,10.5 q 0.5,-0.166666 0.83334,-0.5 0.33333,-0.3333331 0.83333,-0.4999998 0.5,-0.1666667 1.16667,-0.1666667 0.66666,0 1.16666,-0.1666667 0.5,-0.1666666 0.83334,-0.5"
       id="path3470" />
    <path
       style="fill:#000000;fill-opacity:0;stroke-width:1.33333"
       d="M 0,0.66666668 V 0 H 0.66666668 1.3333334 2 2.6666667 3.3333334 4.0000001 4.6666668 5.3333334 6.0000001 6.6666668 7.3333335 8.0000002 8.6666668 9.3333335 10 10.666667 11.333334 12 12.666667 13.333334 14 14.666667 15.333334 16 16.666667 17.333334 18 18.666667 19.333334 20 20.666667 21.333334 22 22.666667 23.333334 24 h 0.666667 0.666667 0.666667 0.666666 0.666667 0.666667 0.666666 0.666667 0.666667 0.666666 0.666667 0.666667 0.666666 0.666667 0.666667 0.666666 0.666667 0.666667 0.666666 0.666667 0.666667 0.666666 0.666667 0.666667 0.666666 0.666667 0.666667 0.666667 0.666666 0.666667 0.666667 0.666666 0.666667 0.666667 0.666666 0.666667 0.666667 0.666666 0.666667 0.666667 0.666666 0.666667 0.666667 0.666666 0.666667 0.666667 0.666666 0.666667 0.666667 0.666666 0.666667 0.666667 0.666666 0.666667 0.666667 0.666667 0.666666 0.666667 0.666667 0.666666 0.666667 0.666667 0.666666 0.666667 0.666667 0.666666 0.666667 0.666667 0.666666 0.666667 0.666667 0.666666 0.666667 0.666667 0.666666 0.666667 0.666667 0.666666 0.666667 0.666667 0.666667 0.666666 0.666667 0.666667 0.666666 0.666667 0.666667 0.666666 0.666667 0.666667 0.666666 0.666667 0.666667 0.666666 0.666667 0.666667 0.666666 0.666667 0.666667 0.666666 0.666667 0.666667 0.666666 0.666667 0.666667 0.666667 0.666666 0.666667 0.666667 0.666666 0.666667 0.666667 0.666666 H 100 h 0.66667 0.66667 0.66666 0.66667 0.66667 0.66666 0.66667 0.66667 0.66666 0.66667 0.66667 0.66666 0.66667 0.66667 0.66666 0.66667 0.66667 0.66666 0.66667 0.66667 0.66666 0.66667 0.66667 0.66666 0.66667 0.66667 0.66666 0.66667 0.66667 0.66666 0.66667 0.66667 0.66666 0.66667 0.66667 0.66666 0.66667 0.66667 0.66666 0.66667 0.66667 0.66666 0.66667 0.66667 0.66666 0.66667 0.66667 0.66666 0.66667 0.66667 0.66666 0.66667 0.66667 0.66666 0.66667 0.66667 0.66666 0.66667 0.66667 0.66666 0.66667 0.66667 0.66666 0.66667 0.66667 0.66666 0.66667 0.66667 0.66666 0.66667 0.66667 0.66666 0.66667 0.66667 0.66666 0.66667 0.66667 0.66666 0.66667 0.66667 0.66666 0.66667 0.66667 0.66666 0.66667 0.66667 0.66666 0.66667 0.66667 0.66666 0.66667 0.66667 0.66666 0.66667 0.66667 0.66666 0.66667 0.66667 0.66666 0.66667 0.66667 0.66666 0.66667 0.66667 0.66666 0.66667 0.66667 0.66666 0.66667 0.66667 0.66666 0.66667 0.66667 0.66666 0.66667 0.66667 0.66666 0.66667 0.66667 0.66666 0.66667 0.66667 0.66666 0.66667 0.66667 0.66666 0.66667 0.66667 0.66666 0.66667 0.66667 0.66666 0.66667 0.66667 0.66666 0.66667 0.66667 0.66666 0.66667 0.66667 0.66666 0.66667 0.66667 0.66666 0.66667 0.66667 0.66666 0.66667 0.66667 0.66666 0.66667 0.66667 0.66666 0.66667 0.66667 0.66666 0.66667 0.66667 0.66666 0.66667 0.66667 0.66666 0.66667 0.66667 0.66666 0.66667 0.66667 0.66666 0.66667 0.66667 0.66666 0.66667 0.66667 0.66666 0.66667 0.66667 0.66666 0.66667 0.66667 0.66666 0.66667 0.66667 0.66666 0.66667 0.66667 0.66666 0.66667 0.66667 0.66666 0.66667 0.66667 0.66666 0.66667 0.66667 0.66666 0.66667 0.66667 0.66666 0.66667 0.66667 0.66666 0.66667 0.66667 0.66666 0.66667 0.66667 0.66666 0.66667 0.66667 0.66666 0.66667 0.66667 0.66666 0.66667 0.66667 0.66666 0.66667 0.66667 0.66666 0.66667 0.66667 0.66666 0.66667 0.66667 0.66666 0.66667 0.66667 0.66666 0.66667 0.66667 0.66666 0.66667 0.66667 0.66666 0.66667 0.66667 0.66667 0.66666 0.66667 0.66667 0.66666 0.66667 0.66667 0.66666 0.66667 0.66667 0.66666 0.66667 0.66667 0.66666 0.66667 0.66667 0.66666 0.66667 0.66667 0.66666 0.66667 0.66667 0.66666 0.66667 0.66667 0.66666 0.66667 0.66667 0.66666 0.66667 0.66667 0.66666 0.66667 0.66667 0.66666 0.66667 0.66667 0.66666 0.66667 0.66667 0.66666 0.66667 0.66667 0.66666 0.66667 0.66667 0.66666 0.66667 0.66667 0.66666 0.66667 0.66667 0.66666 0.66667 0.66667 0.66666 0.66667 0.66667 0.66666 0.66667 0.66667 0.66666 0.66667 0.66667 0.66666 0.66667 0.66667 0.66666 0.66667 0.66667 0.66666 0.66667 0.66667 0.66666 0.66667 0.66667 0.66666 0.66667 0.66667 0.66666 0.66667 0.66667 0.66666 0.66667 0.66667 0.66666 0.66667 0.66667 0.66666 0.66667 0.66667 0.66666 0.66667 0.66667 0.66666 0.66667 0.66667 0.66666 0.66667 0.66667 0.66666 0.66667 0.66667 0.66666 0.66667 0.66667 0.66666 0.66667 0.66667 0.66666 0.66667 0.66667 0.66666 0.66667 0.66667 0.66666 0.66667 0.66667 0.66666 0.66667 0.66667 0.66666 0.66667 0.66667 0.66666 0.66667 V 0.66666668 1.3333334 2 2.6666667 3.3333334 4.0000001 4.6666668 5.3333334 6.0000001 6.6666668 7.3333335 8.0000002 8.6666668 9.3333335 10 10.666667 11.333334 12 12.666667 13.333334 14 14.666667 15.333334 16 16.666667 17.333334 18 18.666667 19.333334 20 20.666667 21.333334 22 22.666667 23.333334 24 v 0.666667 0.666667 0.666667 0.666666 0.666667 0.666667 0.666666 0.666667 0.666667 0.666666 0.666667 0.666667 0.666666 0.666667 0.666667 0.666666 0.666667 0.666667 0.666666 0.666667 0.666667 0.666666 0.666667 0.666667 0.666666 0.666667 0.666667 0.666667 0.666666 0.666667 0.666667 0.666666 0.666667 0.666667 0.666666 0.666667 0.666667 0.666666 0.666667 0.666667 0.666666 0.666667 0.666667 0.666666 0.666667 0.666667 0.666666 0.666667 0.666667 0.666666 0.666667 0.666667 0.666666 0.666667 0.666667 0.666667 0.666666 0.666667 0.666667 0.666666 0.666667 0.666667 0.666666 0.666667 0.666667 0.666666 0.666667 0.666667 0.666666 0.666667 0.666667 0.666666 0.666667 0.666667 0.666666 0.666667 0.666667 0.666666 0.666667 0.666667 0.666667 0.666666 0.666667 0.666667 0.666666 0.666667 0.666667 0.666666 0.666667 0.666667 0.666666 0.666667 0.666667 0.666666 0.666667 0.666667 0.666666 0.666667 0.666667 0.666666 0.666667 0.666667 0.666666 0.666667 0.666667 0.666667 0.666666 0.666667 0.666667 0.666666 0.666667 0.666667 0.666666 V 100 v 0.66667 0.66667 0.66666 0.66667 0.66667 0.66666 0.66667 0.66667 0.66666 0.66667 0.66667 0.66666 0.66667 0.66667 0.66666 0.66667 0.66667 0.66666 0.66667 0.66667 0.66666 0.66667 0.66667 0.66666 0.66667 0.66667 0.66666 0.66667 0.66667 0.66666 0.66667 0.66667 0.66666 0.66667 0.66667 0.66666 0.66667 0.66667 0.66666 0.66667 0.66667 0.66666 0.66667 0.66667 0.66666 0.66667 0.66667 0.66666 0.66667 0.66667 0.66666 0.66667 0.66667 0.66666 0.66667 0.66667 0.66666 0.66667 0.66667 0.66666 0.66667 0.66667 0.66666 0.66667 0.66667 0.66666 0.66667 0.66667 0.66666 0.66667 0.66667 0.66666 0.66667 0.66667 0.66666 0.66667 0.66667 0.66666 0.66667 0.66667 0.66666 0.66667 0.66667 0.66666 0.66667 0.66667 0.66666 0.66667 0.66667 0.66666 0.66667 0.66667 0.66666 0.66667 0.66667 0.66666 0.66667 0.66667 0.66666 0.66667 0.66667 0.66666 0.66667 0.66667 0.66666 0.66667 0.66667 0.66666 0.66667 0.66667 0.66666 0.66667 0.66667 0.66666 0.66667 0.66667 0.66666 0.66667 0.66667 0.66666 0.66667 0.66667 0.66666 0.66667 0.66667 0.66666 0.66667 0.66667 0.66666 0.66667 0.66667 0.66666 0.66667 0.66667 0.66666 0.66667 0.66667 0.66666 0.66667 0.66667 0.66666 0.66667 0.66667 0.66666 0.66667 0.66667 0.66666 0.66667 0.66667 0.66666 0.66667 0.66667 0.66666 0.66667 0.66667 0.66666 0.66667 0.66667 0.66666 0.66667 0.66667 0.66666 0.66667 0.66667 0.66666 0.66667 0.66667 0.66666 0.66667 0.66667 0.66666 0.66667 0.66667 0.66666 0.66667 0.66667 0.66666 0.66667 0.66667 0.66666 0.66667 0.66667 0.66666 0.66667 0.66667 0.66666 0.66667 0.66667 0.66666 0.66667 0.66667 0.66666 0.66667 0.66667 0.66666 0.66667 0.66667 0.66666 0.66667 0.66667 0.66666 0.66667 0.66667 0.66666 0.66667 0.66667 0.66666 0.66667 0.66667 0.66666 0.66667 0.66667 0.66666 0.66667 0.66667 0.66666 0.66667 0.66667 0.66666 0.66667 0.66667 0.66666 0.66667 0.66667 0.66666 0.66667 0.66667 0.66666 0.66667 0.66667 0.66666 0.66667 0.66667 0.66666 0.66667 0.66667 0.66667 0.66666 0.66667 0.66667 0.66666 0.66667 0.66667 0.66666 0.66667 0.66667 0.66666 0.66667 0.66667 0.66666 0.66667 0.66667 0.66666 0.66667 0.66667 0.66666 0.66667 0.66667 0.66666 0.66667 0.66667 0.66666 0.66667 0.66667 0.66666 0.66667 0.66667 0.66666 0.66667 0.66667 0.66666 0.66667 0.66667 0.66666 0.66667 0.66667 0.66666 0.66667 0.66667 0.66666 0.66667 0.66667 0.66666 0.66667 0.66667 0.66666 0.66667 0.66667 0.66666 0.66667 0.66667 0.66666 0.66667 0.66667 0.66666 0.66667 0.66667 0.66666 0.66667 0.66667 0.66666 0.66667 0.66667 0.66666 0.66667 0.66667 0.66666 0.66667 0.66667 0.66666 0.66667 0.66667 0.66666 0.66667 0.66667 0.66666 0.66667 0.66667 0.66666 0.66667 0.66667 0.66666 0.66667 0.66667 0.66666 0.66667 0.66667 0.66666 0.66667 0.66667 0.66666 0.66667 0.66667 0.66666 0.66667 0.66667 0.66666 0.66667 0.66667 0.66666 0.66667 0.66667 0.66666 0.66667 0.66667 0.66666 0.66667 0.66667 0.66666 0.66667 0.66667 0.66666 0.66667 0.66667 0.66666 0.66667 0.66667 0.66666 0.66667 0.66667 0.66666 0.66667 h -0.66667 -0.66666 -0.66667 -0.66667 -0.66666 -0.66667 -0.66667 -0.66666 -0.66667 -0.66667 -0.66666 -0.66667 -0.66667 -0.66666 -0.66667 -0.66667 -0.66666 -0.66667 -0.66667 -0.66666 -0.66667 -0.66667 -0.66666 -0.66667 -0.66667 -0.66666 -0.66667 -0.66667 -0.66666 -0.66667 -0.66667 -0.66666 -0.66667 -0.66667 -0.66666 -0.66667 -0.66667 -0.66666 -0.66667 -0.66667 -0.66666 -0.66667 -0.66667 -0.66666 -0.66667 -0.66667 -0.66666 -0.66667 -0.66667 -0.66666 -0.66667 -0.66667 -0.66666 -0.66667 -0.66667 -0.66666 -0.66667 -0.66667 -0.66666 -0.66667 -0.66667 -0.66666 -0.66667 -0.66667 -0.66666 -0.66667 -0.66667 -0.66666 -0.66667 -0.66667 -0.66666 -0.66667 -0.66667 -0.66666 -0.66667 -0.66667 -0.66666 -0.66667 -0.66667 -0.66666 -0.66667 -0.66667 -0.66666 -0.66667 -0.66667 -0.66666 -0.66667 -0.66667 -0.66666 -0.66667 -0.66667 -0.66666 -0.66667 -0.66667 -0.66666 -0.66667 -0.66667 -0.66666 -0.66667 -0.66667 -0.66666 -0.66667 -0.66667 -0.66666 -0.66667 -0.66667 -0.66666 -0.66667 -0.66667 -0.66666 -0.66667 -0.66667 -0.66666 -0.66667 -0.66667 -0.66666 -0.66667 -0.66667 -0.66666 -0.66667 -0.66667 -0.66666 -0.66667 -0.66667 -0.66666 -0.66667 -0.66667 H 256 255.33334 254.66667 254 253.33334 252.66667 252 251.33334 250.66667 250 249.33334 248.66667 248 247.33334 246.66667 246 245.33334 244.66667 244 243.33334 242.66667 242 241.33334 240.66667 240 239.33334 238.66667 238 237.33334 236.66667 236 235.33334 234.66667 234 233.33334 232.66667 232 231.33334 230.66667 230 229.33334 228.66667 228 227.33334 226.66667 226 225.33334 224.66667 224 223.33334 222.66667 222 221.33334 220.66667 220 219.33334 218.66667 218 217.33334 216.66667 216 215.33334 214.66667 214 213.33334 212.66667 212 211.33334 210.66667 210 209.33334 208.66667 208 207.33334 206.66667 206 205.33334 204.66667 204 203.33334 202.66667 202 201.33334 200.66667 200 199.33334 198.66667 198 197.33334 196.66667 196 195.33334 194.66667 194 193.33334 192.66667 192 191.33334 190.66667 190 189.33334 188.66667 188 187.33334 186.66667 186 185.33334 184.66667 184 183.33334 182.66667 182 181.33334 180.66667 180 179.33334 178.66667 178 177.33334 176.66667 176 175.33334 174.66667 174 173.33334 172.66667 172 171.33334 170.66667 170 169.33334 168.66667 168 167.33334 166.66667 166 165.33334 164.66667 164 163.33334 162.66667 162 161.33334 160.66667 160 159.33334 158.66667 158 157.33334 156.66667 156 155.33334 154.66667 154 153.33334 152.66667 152 151.33334 150.66667 150 149.33334 148.66667 148 147.33334 146.66667 146 145.33334 144.66667 144 143.33334 142.66667 142 141.33334 140.66667 140 139.33334 138.66667 138 137.33334 136.66667 136 135.33334 134.66667 134 133.33334 132.66667 132 131.33334 130.66667 130 129.33334 128.66667 128 127.33334 126.66667 126 125.33334 124.66667 124 123.33334 122.66667 122 121.33334 120.66667 120 119.33334 118.66667 118 117.33334 116.66667 116 115.33334 114.66667 114 113.33334 112.66667 112 111.33334 110.66667 110 109.33334 108.66667 108 107.33334 106.66667 106 105.33334 104.66667 104 103.33334 102.66667 102 101.33334 100.66667 100 99.333335 98.666669 98.000002 97.333335 96.666669 96.000002 95.333335 94.666669 94.000002 93.333335 92.666668 92.000002 91.333335 90.666668 90.000002 89.333335 88.666668 88.000002 87.333335 86.666668 86.000002 85.333335 84.666668 84.000002 83.333335 82.666668 82.000002 81.333335 80.666668 80.000002 79.333335 78.666668 78.000002 77.333335 76.666668 76.000001 75.333335 74.666668 74.000001 73.333335 72.666668 72.000001 71.333335 70.666668 70.000001 69.333335 68.666668 68.000001 67.333335 66.666668 66.000001 65.333335 64.666668 64.000001 63.333335 62.666668 62.000001 61.333335 60.666668 60.000001 59.333334 58.666668 58.000001 57.333334 56.666668 56.000001 55.333334 54.666668 54.000001 53.333334 52.666668 52.000001 51.333334 50.666668 50.000001 49.333334 48.666668 48.000001 47.333334 46.666668 46.000001 45.333334 44.666668 44.000001 43.333334 42.666668 42.000001 41.333334 40.666667 40.000001 39.333334 38.666667 38.000001 37.333334 36.666667 36.000001 35.333334 34.666667 34.000001 33.333334 32.666667 32.000001 31.333334 30.666667 30.000001 29.333334 28.666667 28.000001 27.333334 26.666667 26.000001 25.333334 24.666667 24 23.333334 22.666667 22 21.333334 20.666667 20 19.333334 18.666667 18 17.333334 16.666667 16 15.333334 14.666667 14 13.333334 12.666667 12 11.333334 10.666667 10 9.3333335 8.6666668 8.0000002 7.3333335 6.6666668 6.0000001 5.3333334 4.6666668 4.0000001 3.3333334 2.6666667 2 1.3333334 0.66666668 0 v -0.66667 -0.66666 -0.66667 -0.66667 -0.66666 -0.66667 -0.66667 -0.66666 -0.66667 -0.66667 -0.66666 -0.66667 -0.66667 -0.66666 -0.66667 -0.66667 -0.66666 -0.66667 -0.66667 -0.66666 -0.66667 -0.66667 -0.66666 -0.66667 -0.66667 -0.66666 -0.66667 -0.66667 -0.66666 -0.66667 -0.66667 -0.66666 -0.66667 -0.66667 -0.66666 -0.66667 -0.66667 -0.66666 -0.66667 -0.66667 -0.66666 -0.66667 -0.66667 -0.66666 -0.66667 -0.66667 -0.66666 -0.66667 -0.66667 -0.66666 -0.66667 -0.66667 -0.66666 -0.66667 -0.66667 -0.66666 -0.66667 -0.66667 -0.66666 -0.66667 -0.66667 -0.66666 -0.66667 -0.66667 -0.66666 -0.66667 -0.66667 -0.66666 -0.66667 -0.66667 -0.66666 -0.66667 -0.66667 -0.66666 -0.66667 -0.66667 -0.66666 -0.66667 -0.66667 -0.66666 -0.66667 -0.66667 -0.66666 -0.66667 -0.66667 -0.66666 -0.66667 -0.66667 -0.66666 -0.66667 -0.66667 -0.66666 -0.66667 -0.66667 -0.66666 -0.66667 -0.66667 -0.66666 -0.66667 -0.66667 -0.66666 -0.66667 -0.66667 -0.66666 -0.66667 -0.66667 -0.66666 -0.66667 -0.66667 -0.66666 -0.66667 -0.66667 -0.66666 -0.66667 -0.66667 -0.66666 -0.66667 -0.66667 -0.66666 -0.66667 -0.66667 -0.66666 -0.66667 -0.66667 -0.66666 -0.66667 -0.66667 V 256 255.33334 254.66667 254 253.33334 252.66667 252 251.33334 250.66667 250 249.33334 248.66667 248 247.33334 246.66667 246 245.33334 244.66667 244 243.33334 242.66667 242 241.33334 240.66667 240 239.33334 238.66667 238 237.33334 236.66667 236 235.33334 234.66667 234 233.33334 232.66667 232 231.33334 230.66667 230 229.33334 228.66667 228 227.33334 226.66667 226 225.33334 224.66667 224 223.33334 222.66667 222 221.33334 220.66667 220 219.33334 218.66667 218 217.33334 216.66667 216 215.33334 214.66667 214 213.33334 212.66667 212 211.33334 210.66667 210 209.33334 208.66667 208 207.33334 206.66667 206 205.33334 204.66667 204 203.33334 202.66667 202 201.33334 200.66667 200 199.33334 198.66667 198 197.33334 196.66667 196 195.33334 194.66667 194 193.33334 192.66667 192 191.33334 190.66667 190 189.33334 188.66667 188 187.33334 186.66667 186 185.33334 184.66667 184 183.33334 182.66667 182 181.33334 180.66667 180 179.33334 178.66667 178 177.33334 176.66667 176 175.33334 174.66667 174 173.33334 172.66667 172 171.33334 170.66667 170 169.33334 168.66667 168 167.33334 166.66667 166 165.33334 164.66667 164 163.33334 162.66667 162 161.33334 160.66667 160 159.33334 158.66667 158 157.33334 156.66667 156 155.33334 154.66667 154 153.33334 152.66667 152 151.33334 150.66667 150 149.33334 148.66667 148 147.33334 146.66667 146 145.33334 144.66667 144 143.33334 142.66667 142 141.33334 140.66667 140 139.33334 138.66667 138 137.33334 136.66667 136 135.33334 134.66667 134 133.33334 132.66667 132 131.33334 130.66667 130 129.33334 128.66667 128 127.33334 126.66667 126 125.33334 124.66667 124 123.33334 122.66667 122 121.33334 120.66667 120 119.33334 118.66667 118 117.33334 116.66667 116 115.33334 114.66667 114 113.33334 112.66667 112 111.33334 110.66667 110 109.33334 108.66667 108 107.33334 106.66667 106 105.33334 104.66667 104 103.33334 102.66667 102 101.33334 100.66667 100 99.333335 98.666669 98.000002 97.333335 96.666669 96.000002 95.333335 94.666669 94.000002 93.333335 92.666668 92.000002 91.333335 90.666668 90.000002 89.333335 88.666668 88.000002 87.333335 86.666668 86.000002 85.333335 84.666668 84.000002 83.333335 82.666668 82.000002 81.333335 80.666668 80.000002 79.333335 78.666668 78.000002 77.333335 76.666668 76.000001 75.333335 74.666668 74.000001 73.333335 72.666668 72.000001 71.333335 70.666668 70.000001 69.333335 68.666668 68.000001 67.333335 66.666668 66.000001 65.333335 64.666668 64.000001 63.333335 62.666668 62.000001 61.333335 60.666668 60.000001 59.333334 58.666668 58.000001 57.333334 56.666668 56.000001 55.333334 54.666668 54.000001 53.333334 52.666668 52.000001 51.333334 50.666668 50.000001 49.333334 48.666668 48.000001 47.333334 46.666668 46.000001 45.333334 44.666668 44.000001 43.333334 42.666668 42.000001 41.333334 40.666667 40.000001 39.333334 38.666667 38.000001 37.333334 36.666667 36.000001 35.333334 34.666667 34.000001 33.333334 32.666667 32.000001 31.333334 30.666667 30.000001 29.333334 28.666667 28.000001 27.333334 26.666667 26.000001 25.333334 24.666667 24 23.333334 22.666667 22 21.333334 20.666667 20 19.333334 18.666667 18 17.333334 16.666667 16 15.333334 14.666667 14 13.333334 12.666667 12 11.333334 10.666667 10 9.3333335 8.6666668 8.0000002 7.3333335 6.6666668 6.0000001 5.3333334 4.6666668 4.0000001 3.3333334 2.6666667 2 1.3333334 0.66666668 M 194,206.66667 q 0.66667,0 1.16667,-0.16667 0.5,-0.16666 0.83333,-0.5 0.33334,-0.33333 0.83334,-0.5 0.5,-0.16666 1,-0.33333 0.5,-0.16667 0.83333,-0.5 0.33333,-0.33333 0.83333,-0.5 0.5,-0.16667 1,-0.33333 0.5,-0.16667 0.83334,-0.5 Q 201.66667,203 202,202.66667 202.33334,202.33334 202.66667,202 203,201.66667 203.33334,201.33334 203.66667,201 204,200.66667 q 0.33334,-0.33333 0.66667,-0.66667 0.33333,-0.33333 0.5,-0.83333 l 0.16667,-0.5 0.16666,-0.5 q 0.16667,-0.5 0.5,-0.83333 0.33334,-0.33334 0.33334,-0.66667 0,-0.33333 -0.33334,-0.66667 -0.33333,-0.33333 -0.5,-0.83333 -0.16666,-0.5 -0.33333,-1 -0.16667,-0.5 -0.5,-0.83333 Q 204.33334,193 204.16667,192.5 L 204,192 l 0.16667,-0.5 q 0.16667,-0.5 0.5,-0.5 0.33333,0 0.66667,0.33334 0.33333,0.33333 0.66666,0.33333 0.33334,0 0.33334,-0.33333 Q 206.33334,191 206,190.66667 205.66667,190.33334 205.33334,190 205,189.66667 204.5,189.5 l -0.5,-0.16666 -0.5,-0.16667 q -0.5,-0.16667 -0.5,-0.5 0,-0.33333 0.33334,-0.66667 0.33333,-0.33333 0.33333,-0.66666 0,-0.33334 -0.5,-0.5 l -0.5,-0.16667 -0.5,-0.16667 q -0.5,-0.16666 -0.83333,-0.5 Q 201,185.66667 200.66667,185.33334 200.33334,185 200,184.66667 199.66667,184.33334 199.33334,184 199,183.66667 198.66667,183.33334 198.33334,183 198,182.66667 197.66667,182.33334 197.33334,182 197,181.66667 196.66667,181.33334 196.33334,181 196,180.66667 195.66667,180.33334 195.33334,180 195,179.66667 194.66667,179.33334 194.33334,179 194,178.66667 193.66667,178.33334 193.33334,178 193,177.66667 192.66667,177.33334 192.33334,177 192,176.66667 191.66667,176.33334 191.33334,176 q -0.33334,-0.33333 -0.5,-0.83333 l -0.16667,-0.5 V 174 173.33334 l -0.16667,-0.5 q -0.16666,-0.5 -0.5,-0.83334 -0.33333,-0.33333 -0.66666,-0.66666 Q 189,171 188.66667,170.66667 188.33334,170.33334 188,170 187.66667,169.66667 187.33334,169.33334 187,169 186.66667,168.66667 q -0.33333,-0.33333 -0.83333,-0.5 l -0.5,-0.16667 -0.5,-0.16666 q -0.5,-0.16667 -0.83334,-0.5 Q 183.66667,167 183.33334,166.66667 183,166.33334 182.66667,166 182.33334,165.66667 182,165.33334 181.66667,165 181.33334,164.66667 181,164.33334 180.66667,164 180.33334,163.66667 180,163.33334 179.66667,163 179.33334,162.66667 179,162.33334 178.66667,162 q -0.33333,-0.33333 -0.83333,-0.5 l -0.5,-0.16666 -0.5,-0.16667 Q 176.33334,161 176,160.66667 175.66667,160.33334 175.33334,160 175,159.66667 174.66667,159.33334 174.33334,159 174,158.66667 173.66667,158.33334 173.33334,158 173,157.66667 172.66667,157.33334 172.33334,157 172,156.66667 171.66667,156.33334 171.33334,156 171,155.66667 170.66667,155.33334 q -0.33333,-0.33334 -0.83333,-0.5 l -0.5,-0.16667 -0.5,-0.16667 q -0.5,-0.16666 -0.66667,-0.66666 l -0.16667,-0.5 -0.16666,-0.5 q -0.16667,-0.5 -0.5,-0.83334 -0.33334,-0.33333 -0.5,-0.83333 l -0.16667,-0.5 -0.16667,-0.5 q -0.16666,-0.5 -0.5,-0.83333 Q 165.66667,149 165.33334,148.66667 165,148.33334 164.66667,148 164.33334,147.66667 164,147.33334 163.66667,147 163.33334,146.66667 q -0.33334,-0.33333 -0.5,-0.83333 l -0.16667,-0.5 -0.16667,-0.5 q -0.16666,-0.5 -0.5,-0.83334 -0.33333,-0.33333 -0.5,-0.83333 l -0.16666,-0.5 -0.16667,-0.5 q -0.16667,-0.5 -0.5,-0.83333 Q 160.33334,141 160.16667,140.5 L 160,140 v -0.66666 -0.66667 l -0.16666,-0.5 q -0.16667,-0.5 -0.5,-0.83333 Q 159,137 158.66667,136.66667 158.33334,136.33334 158,136 q -0.33333,-0.33333 -0.5,-0.83333 -0.16666,-0.5 -0.16666,-1.16667 0,-0.66666 0,-1.33333 0,-0.66667 -0.16667,-1.16667 -0.16667,-0.5 -0.5,-0.83333 -0.33333,-0.33333 -0.33333,-0.66667 0,-0.33333 0.33333,-0.66666 Q 157,129 157.16667,128.5 l 0.16667,-0.5 -0.16667,-0.5 q -0.16667,-0.5 -0.5,-0.83333 -0.33333,-0.33333 -0.5,-0.83333 l -0.16667,-0.5 -0.16666,-0.5 q -0.16667,-0.5 -0.5,-0.83334 -0.33334,-0.33333 -0.5,-0.83333 -0.16667,-0.5 -0.16667,-1.16667 0,-0.66666 -0.16667,-1.16666 -0.16666,-0.5 -0.5,-0.83334 -0.33333,-0.33333 -0.33333,-0.66666 0,-0.33334 0.33333,-0.66667 0.33334,-0.33333 0.5,-0.83333 l 0.16667,-0.5 V 116.66667 116 L 154.5,115.5 q -0.16666,-0.5 -0.5,-0.83333 -0.33333,-0.33333 -0.5,-0.83333 l -0.16666,-0.5 -0.16667,-0.5 q -0.16667,-0.5 -0.5,-0.83334 -0.33333,-0.33333 -0.5,-0.83333 Q 152,110.66667 152,110 q 0,-0.66666 0,-1.33333 Q 152,108 151.83334,107.5 q -0.16667,-0.5 -0.5,-0.83333 -0.33334,-0.33333 -0.5,-0.83333 -0.16667,-0.5 -0.16667,-1.16667 0,-0.66667 0,-1.33333 V 102.66667 102 101.33334 100.66667 100 99.333335 98.666669 98.000002 97.333335 96.666669 96.000002 95.333335 94.666669 94.000002 93.333335 92.666668 92.000002 91.333335 90.666668 90.000002 q 0,-0.666667 0,-1.333334 v -0.666666 -0.666667 -0.666667 -0.666666 -0.666667 l -0.16667,-0.5 q -0.16666,-0.5 -0.66666,-0.666667 l -0.5,-0.166666 h -0.66667 q -0.66667,0 -1.16667,-0.166667 -0.5,-0.166667 -0.83333,-0.5 -0.33333,-0.333333 -0.83333,-0.5 -0.5,-0.166667 -1.16667,-0.166667 -0.66667,0 -1.33333,0 -0.66667,0 -1.33334,0 -0.66666,0 -1.33333,0 -0.66667,0 -1.33333,0 -0.66667,0 -1.33334,0 -0.66666,0 -1.33333,0 -0.66667,0 -1.33333,0 -0.66667,0 -1.33334,0 -0.66666,0 -1.33333,0 -0.66667,0 -1.33333,0 -0.66667,0 -1.16667,0.166667 -0.5,0.166667 -0.83333,0.5 -0.33334,0.333333 -0.66667,0.666667 -0.33333,0.333333 -0.5,0.833333 -0.16667,0.5 0,1 0.16667,0.5 0.5,0.833333 0.33333,0.333334 0.5,0.833334 0.16667,0.5 0.33333,1 0.16667,0.5 0.5,0.833333 0.33334,0.333333 0.5,0.833333 0.16667,0.5 0.16667,1.166667 0,0.666667 0,1.333333 0,0.666667 0.16667,1.166667 0.16666,0.5 0.5,0.833334 0.33333,0.333333 0.5,0.833333 0.16666,0.5 0.16666,1.166667 0,0.666666 0.16667,1.166666 0.16667,0.5 0.5,0.833334 0.33333,0.333333 0.5,0.833333 0.16667,0.499998 0.16667,1.166668 0,0.66667 0.16666,1.16667 0.16667,0.5 0.5,0.83333 0.33334,0.33333 0.5,0.83333 0.16667,0.5 0,1 -0.16666,0.5 -0.5,0.83334 -0.33333,0.33333 -0.5,0.83333 l -0.16666,0.5 V 107.33334 108 l -0.16667,0.5 q -0.16667,0.5 -0.5,0.83334 -0.33333,0.33333 -0.33333,0.66666 0,0.33334 0.33333,0.66667 0.33333,0.33333 0.5,0.83333 0.16667,0.5 0,1 -0.16667,0.5 -0.5,0.83334 -0.33333,0.33333 -0.5,0.83333 -0.16667,0.5 -0.16667,1.16667 0,0.66666 0,1.33333 0,0.66667 0,1.33333 0,0.66667 0,1.33334 0,0.66666 0,1.33333 0,0.66667 0.16667,1.16667 0.16667,0.5 0.5,0.83333 0.33333,0.33333 0.5,0.83333 0.16667,0.5 0.16667,1.16667 0,0.66667 0,1.33333 0,0.66667 0.16666,1.16667 0.16667,0.5 0.5,0.83333 0.33334,0.33334 0.5,0.83334 0.16667,0.5 0.16667,1.16666 0,0.66667 0.16667,1.16667 0.16666,0.5 0.5,0.83333 0.33333,0.33334 0.5,0.83334 Q 136,133.33334 136,134 q 0,0.66667 0.16667,1.16667 0.16667,0.5 0.5,0.83333 0.33333,0.33334 0.5,0.83334 0.16667,0.5 0.16667,1.16666 0,0.66667 0.16666,1.16667 0.16667,0.5 0.5,0.83333 0.33334,0.33334 0.5,0.83334 0.16667,0.5 0.33334,1 0.16666,0.5 0.5,0.83333 0.33333,0.33333 0.5,0.83333 0.16666,0.5 0.33333,1 0.16667,0.5 0.5,0.83334 0.33333,0.33333 0.5,0.83333 0.16667,0.5 0.33333,1 0.16667,0.5 0.5,0.83333 0.33334,0.33334 0.66667,0.66667 Q 143,149 143.33334,149.33334 143.66667,149.66667 144,150 q 0.33334,0.33334 0.66667,0.66667 Q 145,151 145.33334,151.33334 145.66667,151.66667 146,152 q 0.33334,0.33334 0.66667,0.66667 Q 147,153 147.33334,153.33334 147.66667,153.66667 148,154 q 0.33334,0.33334 0.66667,0.66667 Q 149,155 149.33334,155.33334 149.66667,155.66667 150,156 q 0.33334,0.33334 0.66667,0.66667 Q 151,157 151.33334,157.33334 151.66667,157.66667 152,158 q 0.33334,0.33334 0.66667,0.66667 Q 153,159 153.33334,159.33334 153.66667,159.66667 154,160 q 0.33334,0.33334 0.66667,0.66667 0.33333,0.33333 0.83333,0.5 0.5,0.16667 1,0.33333 0.5,0.16667 0.83334,0.5 0.33333,0.33334 0.66666,0.66667 0.33334,0.33333 0.66667,0.66667 0.33333,0.33333 0.66667,0.66666 0.33333,0.33334 0.66666,0.66667 0.33334,0.33333 0.83334,0.5 0.5,0.16667 1,0.33333 0.5,0.16667 0.83333,0.5 0.33333,0.33334 0.66667,0.66667 0.33333,0.33333 0.66666,0.66667 0.33334,0.33333 0.66667,0.66666 0.33333,0.33334 0.66667,0.66667 0.33333,0.33333 0.66666,0.66667 0.33334,0.33333 0.66667,0.66666 0.33333,0.33334 0.66667,0.66667 0.33333,0.33333 0.5,0.83333 L 168,172 l 0.16667,0.5 q 0.16667,0.5 0.5,0.83334 0.33333,0.33333 0.5,0.83333 l 0.16667,0.5 0.16666,0.5 q 0.16667,0.5 0.5,0.83333 0.33334,0.33334 0.66667,0.66667 Q 171,177 171.33334,177.33334 171.66667,177.66667 172,178 q 0.33334,0.33334 0.66667,0.66667 0.33333,0.33333 0.66667,0.66667 0.33333,0.33333 0.83333,0.5 l 0.5,0.16666 H 175.33334 176 l 0.5,0.16667 q 0.5,0.16667 0.83334,0.5 0.33333,0.33333 0.66666,0.66667 0.33334,0.33333 0.5,0.83333 l 0.16667,0.5 0.16667,0.5 q 0.16666,0.5 0.66666,0.66667 L 180,184 l 0.5,0.16667 q 0.5,0.16667 0.66667,0.66667 l 0.16667,0.5 V 186 v 0.66667 l -0.5,-0.16667 q -0.5,-0.16666 -0.83334,-0.5 -0.33333,-0.33333 -0.66666,-0.33333 Q 179,185.66667 179,186 q 0,0.33334 0.33334,0.66667 0.33333,0.33333 0.66666,0.66667 0.33334,0.33333 0.66667,0.66666 0.33333,0.33334 0.66667,0.66667 0.33333,0.33333 0.66666,0.66667 0.33334,0.33333 0.66667,0.66666 0.33333,0.33334 0.66667,0.33334 0.33333,0 0.66666,-0.33334 0.33334,-0.33333 0.66667,-0.33333 0.33333,0 0.66667,0.33333 0.33333,0.33334 0.66666,0.66667 0.33334,0.33333 0.66667,0.66667 0.33333,0.33333 0.66667,0.66666 0.33333,0.33334 0.5,0.83334 l 0.16666,0.5 0.16667,0.5 q 0.16667,0.5 0.5,0.83333 Q 189,195 189.16667,195.5 l 0.16667,0.5 0.16666,0.5 q 0.16667,0.5 0.5,0.83334 0.33334,0.33333 0.5,0.83333 l 0.16667,0.5 V 199.33334 200 l 0.16667,0.5 q 0.16666,0.5 0.5,0.83334 0.33333,0.33333 0.33333,0.66666 0,0.33334 -0.33333,0.66667 Q 191,203 190.83334,203.5 l -0.16667,0.5 0.16667,0.5 q 0.16666,0.5 0.5,0.83334 0.33333,0.33333 0.66666,0.66666 0.33334,0.33334 0.83334,0.5 l 0.5,0.16667 H 194 M 151.33334,45.333334 q 0.66666,0 1.16666,-0.166666 0.5,-0.166667 0.83334,-0.5 0.33333,-0.333334 0.83333,-0.5 0.5,-0.166667 1,-0.333334 0.5,-0.166666 0.83333,-0.5 0.33334,-0.333333 0.83334,-0.5 0.5,-0.166666 1,-0.333333 0.5,-0.166667 0.83333,-0.5 0.33333,-0.333334 0.83333,-0.5 0.5,-0.166667 1.16667,-0.166667 0.66667,0 1.16667,-0.166667 0.5,-0.166666 0.83333,-0.5 0.33333,-0.333333 0.83333,-0.5 0.5,-0.166666 1.16667,-0.166666 0.66667,0 1.33333,0 0.66667,0 1.33334,0 0.66666,0 1.33333,0 0.66667,0 1.33333,0 0.66667,0 1.33334,0 0.66666,0 1.16666,-0.166667 0.5,-0.166667 0.83334,-0.5 0.33333,-0.333333 0.83333,-0.5 0.5,-0.166667 1.16667,-0.166667 0.66666,0 1.33333,0 0.66667,0 1.33333,0 0.66667,0 1.33334,0 0.66666,0 1.16666,0.166667 0.5,0.166667 0.83334,0.5 0.33333,0.333333 0.83333,0.5 0.5,0.166667 1.16667,0.166667 0.66666,0 1.33333,0 0.66667,0 1.33333,0 0.66667,0 1.33334,0 0.66666,0 1.33333,0 0.66667,0 1.33333,0 0.66667,0 1.33334,0 0.66666,0 1.33333,0 0.66667,0 1.16667,-0.166667 0.5,-0.166667 0.83333,-0.5 0.33333,-0.333333 0.83333,-0.5 0.5,-0.166667 1.16667,-0.166667 0.66667,0 1.33333,0 0.66667,0 1.33334,0 0.66666,0 1.33333,0 0.66667,0 1.33333,0 0.66667,0 1.16667,-0.166666 0.5,-0.166667 0.83333,-0.5 0.33334,-0.333334 0.66667,-0.666667 0.33333,-0.333333 0.5,-0.833333 0.16667,-0.5 0,-1 -0.16667,-0.5 -0.5,-0.833334 -0.33333,-0.333333 -0.5,-0.833333 Q 204,33.333334 204,32.666667 q 0,-0.666666 0,-1.333333 0,-0.666667 -0.16666,-1.166667 -0.16667,-0.5 -0.5,-0.833333 -0.33334,-0.333333 -0.5,-0.833333 -0.16667,-0.5 -0.33334,-1 -0.16666,-0.5 -0.5,-0.833334 -0.33333,-0.333333 -0.5,-0.833333 -0.16666,-0.5 -0.33333,-1 -0.16667,-0.5 -0.5,-0.833334 -0.33333,-0.333333 -0.5,-0.833333 -0.16667,-0.5 -0.33333,-1 -0.16667,-0.5 -0.5,-0.833333 Q 199,21 198.66667,20.666667 198.33334,20.333334 198,20 197.66667,19.666667 197.33334,19.333334 197,19 196.66667,18.666667 196.33334,18.333334 196,18 195.66667,17.666667 195.33334,17.333334 195,17 194.66667,16.666667 194.33334,16.333334 194,16 193.66667,15.666667 193.33334,15.333334 193,15 192.66667,14.666667 192.33334,14.333334 192,14 q -0.33333,-0.333333 -0.83333,-0.5 -0.5,-0.166666 -1,-0.333333 -0.5,-0.166667 -0.83333,-0.5 Q 189,12.333334 188.66667,12 188.33334,11.666667 188,11.333334 q -0.33333,-0.333334 -0.83333,-0.5 -0.5,-0.166667 -1.16667,-0.166667 -0.66666,0 -1.16666,-0.166667 -0.5,-0.166666 -0.83334,-0.5 -0.33333,-0.3333331 -0.83333,-0.4999998 -0.5,-0.1666667 -1.16667,-0.1666667 -0.66666,0 -1.16666,-0.1666667 -0.5,-0.1666666 -0.83334,-0.5 -0.33333,-0.3333333 -0.83333,-0.5 -0.5,-0.1666666 -1.16667,-0.1666666 -0.66666,0 -1.33333,0 -0.66667,0 -1.33333,0 -0.66667,0 -1.33334,0 -0.66666,0 -1.33333,0 -0.66667,0 -1.33333,0 -0.66667,0 -1.16667,0.1666666 -0.5,0.1666667 -0.83333,0.5 -0.33334,0.3333334 -0.83334,0.5 -0.5,0.1666667 -1.16666,0.1666667 -0.66667,0 -1.16667,0.1666667 Q 165.66667,9.6666669 165.33334,10 165,10.333334 164.5,10.5 164,10.666667 163.5,10.833334 163,11 162.66667,11.333334 162.33334,11.666667 162,12 161.66667,12.333334 161.33334,12.666667 161,13 160.66667,13.333334 160.33334,13.666667 160,14 159.66667,14.333334 159.33334,14.666667 159,15 158.66667,15.333334 158.33334,15.666667 158,16 157.66667,16.333334 157.33334,16.666667 157,17 156.66667,17.333334 156.33334,17.666667 156,18 155.66667,18.333334 155.33334,18.666667 155,19 154.66667,19.333334 154.33334,19.666667 154,20 153.66667,20.333334 153.33334,20.666667 153,21 152.66667,21.333334 q -0.33333,0.333333 -0.5,0.833333 -0.16667,0.5 -0.33333,1 -0.16667,0.5 -0.5,0.833333 Q 151,24.333334 150.66667,24.666667 150.33334,25 150,25.333334 q -0.33333,0.333333 -0.5,0.833333 -0.16666,0.5 -0.33333,1 -0.16667,0.5 -0.5,0.833334 -0.33333,0.333333 -0.5,0.833333 -0.16667,0.5 -0.16667,1.166667 0,0.666666 -0.16666,1.166666 -0.16667,0.5 -0.5,0.833334 -0.33334,0.333333 -0.5,0.833333 -0.16667,0.5 -0.16667,1.166667 0,0.666666 0,1.333333 0,0.666667 0,1.333333 0,0.666667 0,1.333334 0,0.666666 0.16667,1.166666 0.16666,0.5 0.5,0.833334 0.33333,0.333333 0.5,0.833333 0.16666,0.5 0.16666,1.166667 0,0.666667 0,1.333333 0,0.666667 0.16667,1.166667 0.16667,0.5 0.66667,0.666667 0.5,0.166666 1.16666,0.166666 0.66667,0 1.33334,0"
       id="path3468" />
  </g>
</svg>
